<svg xmlns="http://www.w3.org/2000/svg" width="24" height="26" viewBox="0 0 24 26"><g><g><path fill="#fff" d="M15.08 17.203a1.501 1.501 0 0 1-3 0 1.501 1.501 0 0 1 3 0zm-1 0a.5.5 0 1 0-1 .001.5.5 0 0 0 1-.001zM13.796 2.96l-.007.004a.498.498 0 0 1-.683-.182.5.5 0 0 1 .182-.683l.007-.004a.5.5 0 0 1 .501.865zM23.8 9.905v14.59c0 .826-.673 1.498-1.5 1.498H1.7c-.827 0-1.5-.672-1.5-1.499V9.904c0-.826.673-1.498 1.5-1.498h.655l9.178-5.295a.5.5 0 0 1 .5.866L4.355 8.406h4.003l9.47-5.463-.728-1.258a.549.549 0 0 0-.748-.2l-.693.4a.5.5 0 0 1-.5-.866l.693-.4a1.55 1.55 0 0 1 2.114.567l4.172 7.22h.162c.827 0 1.5.672 1.5 1.499zm-3.971-3.498l-3.465 1.999h4.62zm-9.47 1.999h4.005l4.965-2.864-1.002-1.733zm12.44 9.493v-2.884a1.494 1.494 0 0 1-.5.086h-9.852a.948.948 0 0 0-.947.946v2.304c0 .522.425.947.947.947H22.3a.5.5 0 0 0 .5-.5v-.9zm0-7.295v-.7a.5.5 0 0 0-.5-.499H1.7a.5.5 0 0 0-.5.5v12.89h8.05a.5.5 0 1 1 0 1H1.2v.699a.5.5 0 0 0 .5.5h20.6a.5.5 0 0 0 .5-.5v-4.283a1.494 1.494 0 0 1-.5.086h-9.853a1.949 1.949 0 0 1-1.947-1.946v-2.304c0-1.072.873-1.945 1.947-1.945H22.3a.5.5 0 0 0 .5-.5v-1.999h-5.65a.5.5 0 1 1 0-.999zm-15.466 8.2c0 1.016-.771 1.868-1.8 2.08v.294a.5.5 0 0 1-1 0v-.294c-1.028-.212-1.8-1.064-1.8-2.08a.5.5 0 0 1 1 0c0 .624.584 1.133 1.3 1.133.717 0 1.3-.509 1.3-1.133 0-.625-.583-1.133-1.3-1.133-1.268 0-2.3-.956-2.3-2.132 0-1.016.772-1.868 1.8-2.08v-.231a.5.5 0 0 1 1 0v.23c1.029.213 1.8 1.065 1.8 2.081a.5.5 0 0 1-1 0c0-.625-.583-1.133-1.3-1.133-.717 0-1.3.508-1.3 1.133s.584 1.133 1.3 1.133c1.268 0 2.3.956 2.3 2.132zm4.542 4.49a.503.503 0 0 1-.5.5.504.504 0 0 1-.5-.5.502.502 0 0 1 .5-.499.502.502 0 0 1 .5.5z"/></g></g></svg>