<svg xmlns="http://www.w3.org/2000/svg" width="26" height="26" viewBox="0 0 26 26"><g><g><path fill="#fff" d="M25.8.7v7.2a.5.5 0 0 1-.5.5h-5.2v16.9a.5.5 0 0 1-.5.5H6.4a.5.5 0 0 1-.5-.5V14.337a.5.5 0 0 1 1 0v4.12a3.685 3.685 0 0 1 3.143 3.143h5.914a3.685 3.685 0 0 1 3.143-3.143V3.4H6.9v7.117a.5.5 0 0 1-1 0V8.4H.7a.5.5 0 0 1-.5-.5V.7A.5.5 0 0 1 .7.2h24.6a.5.5 0 0 1 .5.5zM6.9 21.6h2.13a2.685 2.685 0 0 0-2.13-2.13zm12.2 2.6H6.9v.6h12.2zm0-1.6H6.9v.6h12.2zm0-3.13a2.684 2.684 0 0 0-2.13 2.13h2.13zM5.9 3.4H4.8a.901.901 0 0 0 0 1.8h1.1zm18.9-2.2H1.2v6.2h4.7V6.2H4.8c-1.048 0-1.9-.852-1.9-1.9s.852-1.9 1.9-1.9h16.4c1.048 0 1.9.852 1.9 1.9s-.852 1.9-1.9 1.9h-1.1v1.2h4.7zm-3.6 4a.901.901 0 0 0 0-1.8h-1.1v1.8zm-4.906 4.599a.5.5 0 0 1-.5.5h-.118c-.201.716-.823 1.24-1.556 1.24a.5.5 0 1 1 0-1c.344 0 .625-.332.625-.74s-.28-.74-.625-.74-.625.332-.625.74c0 .959-.73 1.74-1.625 1.74-.734 0-1.356-.524-1.557-1.24h-.08a.5.5 0 1 1 0-1h.08c.201-.717.823-1.24 1.557-1.24a.5.5 0 1 1 0 1c-.345 0-.626.332-.626.74s.28.74.626.74c.344 0 .625-.332.625-.74 0-.96.729-1.74 1.625-1.74.733 0 1.355.523 1.556 1.24h.118a.5.5 0 0 1 .5.5zm-2.803 6.66v1.517a.5.5 0 0 1-1 0V16.46a.5.5 0 1 1 1 0zM17.95 9.8c0 2.73-2.22 4.95-4.95 4.95s-4.95-2.22-4.95-4.95 2.22-4.95 4.95-4.95 4.95 2.22 4.95 4.95zm-1 0A3.954 3.954 0 0 0 13 5.849a3.954 3.954 0 0 0-3.95 3.95 3.954 3.954 0 0 0 3.95 3.95 3.955 3.955 0 0 0 3.95-3.95zM6.9 12.439a.504.504 0 0 1-.5.5.503.503 0 0 1-.5-.5.503.503 0 0 1 .5-.5.504.504 0 0 1 .5.5z"/></g></g></svg>