<svg width="30" height="30" viewBox="0 0 30 30" fill="none" xmlns="http://www.w3.org/2000/svg">
<g clip-path="url(#clip0)">
<path d="M22.5527 8.46679C21.5508 7.75195 20.4727 7.18945 19.3359 6.78515C19.0781 4.60546 17.2324 2.9414 15 2.9414C12.7734 2.9414 10.9219 4.60546 10.6641 6.78515C8.86523 7.42382 7.21289 8.45507 5.81836 9.8496C3.36914 12.2988 2.01562 15.5625 2.01562 19.0254V20.9297H1.01953C0.462891 20.9297 0 21.3867 0 21.9551V26.0566C0 26.6191 0.462891 27.082 1.02539 27.082H22.5293H24.3633H28.9805C29.543 27.082 30.0059 26.6191 30.0059 26.0566V21.9551C30.0059 21.3926 29.543 20.9297 28.9805 20.9297H27.9844V19.0254C27.9844 15.4863 26.584 12.1758 24.041 9.70898L22.5527 8.46679ZM22.2363 9.32226L23.4258 10.3359C25.7988 12.6328 27.0996 15.7207 27.0996 19.0254V20.9297H23.0508V15.334C23.0508 13.1543 22.2012 10.8691 20.7246 9.05859C20.332 8.57812 19.9102 8.15038 19.4648 7.77538C20.3672 8.1328 21.2344 8.60741 22.0371 9.18163L22.2363 9.32226ZM22.5293 26.2031H22.2363V21.8086H24.7559V26.2031H24.3574H22.5293ZM22.1719 15.334V20.9297H17.8828V13.8105C17.8828 13.0664 17.5898 11.1738 17.1504 9.52734C16.8398 8.37304 16.541 7.59374 16.2539 7.07226C17.6367 7.40038 18.9492 8.27343 20.0391 9.60937C21.375 11.2441 22.1719 13.3828 22.1719 15.334ZM7.76367 21.8086V26.2031H5.24414V21.8086H7.76367ZM8.64258 21.8086H11.1621V26.2031H8.64258V21.8086ZM12.041 21.8086H14.5605V26.2031H12.041V21.8086ZM15 6.92577C15.0059 6.92577 15.5801 7.04882 16.3008 9.75585C16.752 11.4551 17.0039 13.2305 17.0039 13.8105V20.9297H12.9961V13.8105C12.9961 13.2305 13.248 11.4492 13.6992 9.75585C14.4199 7.04882 14.9941 6.92577 15 6.92577ZM15.4395 21.8086H17.959V26.2031H15.4395V21.8086ZM15 3.8203C16.6406 3.8203 18.0234 4.95116 18.3926 6.49218C17.2969 6.19921 16.1602 6.04687 15 6.04687C13.8398 6.04687 12.7031 6.19921 11.6074 6.49218C11.9766 4.95116 13.3594 3.8203 15 3.8203ZM7.82813 16.8281V15.334C7.82813 13.3828 8.625 11.2441 9.96094 9.60937C11.0508 8.27343 12.3633 7.40624 13.7461 7.07226C13.459 7.59374 13.1543 8.37304 12.8496 9.52734C12.4102 11.168 12.1172 13.0664 12.1172 13.8105V20.9297H7.82813V18.7617V16.8281ZM6.94922 18.7617V20.9297H2.90039V19.0254C2.90039 13.9336 6.05859 9.56835 10.5234 7.78124C10.084 8.15038 9.66797 8.57812 9.27539 9.05273C7.79297 10.8633 6.94922 13.1543 6.94922 15.3281V16.8223V18.7617ZM0.878906 26.0566V21.9551C0.878906 21.873 0.943359 21.8086 1.02539 21.8086H4.36523V26.2031H1.02539C0.943359 26.2031 0.878906 26.1387 0.878906 26.0566ZM21.3574 26.2031H18.8379V21.8086H21.3574V26.2031ZM29.1211 26.0566C29.1211 26.1387 29.0566 26.2031 28.9746 26.2031H25.6348V21.8086H28.9746C29.0566 21.8086 29.1211 21.873 29.1211 21.9551V26.0566Z" fill="white"/>
</g>
<defs>
<clipPath id="clip0">
<rect width="30" height="30" fill="white"/>
</clipPath>
</defs>
</svg>
