<svg width="18" height="17" viewBox="0 0 18 17" fill="none" xmlns="http://www.w3.org/2000/svg">
<path fill-rule="evenodd" clip-rule="evenodd" d="M17.7309 7.57572L9.54769 0.210824C9.39732 0.0751133 9.20198 0 8.99943 0C8.79687 0 8.60153 0.0751133 8.45117 0.210824L0.267945 7.57572C0.145851 7.6867 0.0601165 7.83198 0.0220592 7.99252C-0.0159982 8.15307 -0.00461363 8.32133 0.0546742 8.47531C0.113962 8.62928 0.218402 8.76174 0.354303 8.8553C0.490203 8.94886 0.651216 8.99916 0.816207 8.99959H2.45285V15.5462C2.45285 15.7632 2.53908 15.9713 2.69254 16.1248C2.84601 16.2783 3.05414 16.3645 3.27117 16.3645H5.72614C5.94317 16.3645 6.1513 16.2783 6.30477 16.1248C6.45823 15.9713 6.54446 15.7632 6.54446 15.5462C6.54446 15.3291 6.45823 15.121 6.30477 14.9675C6.1513 14.8141 5.94317 14.7278 5.72614 14.7278H4.08949V8.18127C4.08949 7.96424 4.00327 7.75611 3.8498 7.60264C3.69634 7.44918 3.48821 7.36295 3.27117 7.36295H2.95202L8.99943 1.91295L15.0468 7.36295H14.7277C14.5106 7.36295 14.3025 7.44918 14.1491 7.60264C13.9956 7.75611 13.9094 7.96424 13.9094 8.18127V14.7278H9.81775V12.9848C10.2479 12.8909 10.6548 12.7112 11.0139 12.4564C11.373 12.2016 11.677 11.877 11.9078 11.502C12.1385 11.127 12.2912 10.7092 12.3567 10.2738C12.4222 9.83835 12.3992 9.3942 12.289 8.96788C12.1789 8.54156 11.9838 8.14187 11.7156 7.79269C11.4473 7.44351 11.1114 7.15202 10.7279 6.93571C10.3443 6.7194 9.92111 6.58271 9.48351 6.53379C9.04591 6.48487 8.60293 6.52473 8.1811 6.65101C7.75624 6.76216 7.35889 6.95978 7.01391 7.23154C6.66893 7.5033 6.38374 7.84334 6.17621 8.23037C5.93427 8.6675 5.79565 9.15424 5.77089 9.65324C5.74613 10.1522 5.83593 10.6502 6.03341 11.1092C6.23088 11.5681 6.53075 11.9758 6.91012 12.3009C7.28949 12.626 7.73825 12.8599 8.22201 12.9848V15.5462C8.22201 15.7632 8.30824 15.9713 8.4617 16.1248C8.61517 16.2783 8.8233 16.3645 9.04033 16.3645H14.7686C14.9856 16.3645 15.1938 16.2783 15.3472 16.1248C15.5007 15.9713 15.5869 15.7632 15.5869 15.5462V8.99959H17.2236C17.3851 8.99132 17.5405 8.93539 17.6703 8.83882C17.8 8.74225 17.8982 8.60938 17.9525 8.45703C18.0068 8.30467 18.0147 8.13964 17.9753 7.98278C17.9359 7.82593 17.8508 7.68428 17.7309 7.57572ZM7.36278 9.81791C7.36278 9.49422 7.45875 9.17779 7.63859 8.90864C7.81842 8.6395 8.07404 8.42971 8.3731 8.30584C8.67216 8.18196 9.00126 8.14959 9.31873 8.21274C9.63621 8.27589 9.9278 8.43177 10.1567 8.66066C10.3856 8.88955 10.5415 9.18113 10.6046 9.49861C10.6678 9.81609 10.6354 10.1452 10.5115 10.4442C10.3876 10.7433 10.1778 10.9989 9.9087 11.1788C9.63956 11.3586 9.32312 11.4546 8.99943 11.4546C8.56536 11.4546 8.1491 11.2821 7.84217 10.9752C7.53524 10.6682 7.36278 10.252 7.36278 9.81791Z" fill="white"/>
</svg>
