<svg width="17" height="16" viewBox="0 0 17 16" fill="#4D4C4C" xmlns="http://www.w3.org/2000/svg">
<path d="M16.1275 8.93414L16.9243 4.95012C16.9482 4.83301 16.9455 4.71209 16.9163 4.59617C16.8871 4.48026 16.8323 4.37237 16.7557 4.28054C16.6792 4.18872 16.583 4.11528 16.4743 4.06568C16.3655 4.01608 16.247 3.99158 16.1275 3.994H4.97225L4.12764 0.61556C4.08402 0.438768 3.98116 0.28221 3.83618 0.172027C3.69121 0.0618447 3.51286 0.00467889 3.33084 0.00998191H1.73723C1.52591 0.00998191 1.32322 0.0938935 1.1738 0.243323C1.02437 0.392753 0.94043 0.59546 0.94043 0.806785C0.94043 1.01811 1.02437 1.22082 1.1738 1.37025C1.32322 1.51968 1.52591 1.60359 1.73723 1.60359H2.70933L4.87664 10.2728L4.32684 11.3804C3.81589 11.1462 3.23877 11.0996 2.69686 11.2487C2.15495 11.3978 1.68291 11.7331 1.36366 12.1957C1.04441 12.6582 0.898368 13.2185 0.951178 13.7781C1.00399 14.3376 1.25228 14.8607 1.65244 15.2554C2.0526 15.65 2.57902 15.891 3.13925 15.9361C3.69948 15.9812 4.25769 15.8275 4.71581 15.5019C5.17393 15.1763 5.50267 14.6997 5.64429 14.1558C5.7859 13.6119 5.73134 13.0354 5.49017 12.5277C5.55149 12.4673 5.60262 12.3973 5.64156 12.3206L6.43837 10.7269C6.52463 10.5572 6.54725 10.3622 6.50213 10.1772L5.35473 5.5876H15.1156L14.6056 8.12138L8.71724 9.59555C8.51225 9.64732 8.33623 9.77835 8.22789 9.95991C8.11956 10.1415 8.08778 10.3587 8.13955 10.5636C8.19132 10.7686 8.3224 10.9446 8.50396 11.053C8.68551 11.1613 8.90268 11.1931 9.10766 11.1413L15.4821 9.54769C15.6385 9.5213 15.7835 9.44885 15.8985 9.33954C16.0135 9.23024 16.0932 9.08904 16.1275 8.93414ZM3.37865 14.3524C3.22105 14.3524 3.067 14.3057 2.93596 14.2181C2.80493 14.1306 2.7028 14.0062 2.64249 13.8606C2.58218 13.715 2.56642 13.5548 2.59716 13.4002C2.62791 13.2456 2.7038 13.1036 2.81523 12.9922C2.92667 12.8807 3.06863 12.8048 3.22319 12.7741C3.37775 12.7434 3.53798 12.7591 3.68357 12.8194C3.82917 12.8797 3.95362 12.9819 4.04117 13.113C4.12873 13.244 4.17545 13.398 4.17545 13.5556C4.17335 13.7656 4.08847 13.9662 3.93926 14.1139C3.79006 14.2617 3.5886 14.3445 3.37865 14.3445V14.3524ZM14.5339 11.1652C14.0611 11.1652 13.5989 11.3054 13.2058 11.5681C12.8127 11.8308 12.5064 12.2041 12.3254 12.6408C12.1445 13.0776 12.0972 13.5582 12.1894 14.0219C12.2816 14.4856 12.5093 14.9116 12.8436 15.2459C13.1779 15.5802 13.6039 15.8079 14.0675 15.9001C14.5312 15.9924 15.0119 15.945 15.4487 15.7641C15.8854 15.5831 16.2588 15.2768 16.5214 14.8837C16.7841 14.4906 16.9243 14.0284 16.9243 13.5556C16.9253 13.2411 16.8643 12.9294 16.7446 12.6384C16.625 12.3475 16.4491 12.083 16.227 11.8602C16.0049 11.6374 15.741 11.4606 15.4505 11.34C15.16 11.2194 14.8485 11.1572 14.5339 11.1573V11.1652ZM14.5339 14.3524C14.3763 14.3524 14.2222 14.3057 14.0912 14.2181C13.9602 14.1306 13.858 14.0062 13.7977 13.8606C13.7374 13.715 13.7217 13.5548 13.7524 13.4002C13.7832 13.2456 13.859 13.1036 13.9705 12.9922C14.0819 12.8807 14.2239 12.8048 14.3784 12.7741C14.533 12.7434 14.6932 12.7591 14.8388 12.8194C14.9844 12.8797 15.1089 12.9819 15.1964 13.113C15.284 13.244 15.3307 13.398 15.3307 13.5556C15.3286 13.7656 15.2437 13.9662 15.0945 14.1139C14.9453 14.2617 14.7438 14.3445 14.5339 14.3445V14.3524Z" />
</svg>
