<svg width="14" height="18" viewBox="0 0 14 18" fill="none" xmlns="http://www.w3.org/2000/svg">
<path fill-rule="evenodd" clip-rule="evenodd" d="M13.125 5.25H5.25V3.5C5.25 3.03587 5.43437 2.59078 5.76256 2.26259C6.09075 1.9344 6.53587 1.75 7 1.75C7.46413 1.75 7.90925 1.9344 8.23744 2.26259C8.56563 2.59078 8.75 3.03587 8.75 3.5C8.75 3.73206 8.8422 3.95466 9.00629 4.11876C9.17039 4.28285 9.39294 4.375 9.625 4.375C9.85706 4.375 10.0796 4.28285 10.2437 4.11876C10.4078 3.95466 10.5 3.73206 10.5 3.5C10.5 2.57174 10.1313 1.68155 9.47488 1.02518C8.8185 0.3688 7.92826 0 7 0C6.07174 0 5.1815 0.3688 4.52512 1.02518C3.86875 1.68155 3.5 2.57174 3.5 3.5V6.125C3.5 6.35706 3.5922 6.57966 3.75629 6.74376C3.92039 6.90785 4.14294 7 4.375 7H12.25V15.75H1.75V6.125C1.75 5.89294 1.6578 5.67034 1.49371 5.50624C1.32961 5.34215 1.10706 5.25 0.875 5.25C0.642936 5.25 0.420389 5.34215 0.256294 5.50624C0.0921999 5.67034 0 5.89294 0 6.125V16.625C0 16.8571 0.0921999 17.0797 0.256294 17.2438C0.420389 17.4079 0.642936 17.5 0.875 17.5H13.125C13.3571 17.5 13.5796 17.4079 13.7437 17.2438C13.9078 17.0797 14 16.8571 14 16.625V6.125C14 5.89294 13.9078 5.67034 13.7437 5.50624C13.5796 5.34215 13.3571 5.25 13.125 5.25Z" fill="white"/>
</svg>
