<svg width="16" height="16" viewBox="0 0 16 16" fill="#4D4C4C" xmlns="http://www.w3.org/2000/svg">
<path d="M3.54376 8.8593C3.36853 8.8593 3.19725 8.91125 3.05155 9.0086C2.90586 9.10594 2.7923 9.24431 2.72525 9.4062C2.6582 9.56808 2.64067 9.7462 2.67485 9.91805C2.70904 10.0899 2.79342 10.2478 2.91732 10.3717C3.04122 10.4956 3.19906 10.58 3.37091 10.6141C3.54276 10.6483 3.72091 10.6308 3.88279 10.5637C4.04468 10.4967 4.18305 10.3831 4.28039 10.2374C4.37774 10.0917 4.42969 9.92046 4.42969 9.74523C4.42969 9.51027 4.33634 9.28494 4.17019 9.1188C4.00405 8.95265 3.77872 8.8593 3.54376 8.8593ZM0.88595 5.31556H2.65782C2.8602 5.32146 3.0585 5.25784 3.21969 5.13533C3.38089 5.01283 3.49525 4.83881 3.54376 4.64224L4.26136 1.77182H11.7387L12.4563 4.64224C12.5048 4.83881 12.6191 5.01283 12.7803 5.13533C12.9415 5.25784 13.1398 5.32146 13.3422 5.31556H15.1141C15.349 5.31556 15.5744 5.22221 15.7405 5.05606C15.9067 4.88992 16 4.66459 16 4.42962C16 4.19466 15.9067 3.96933 15.7405 3.80319C15.5744 3.63704 15.349 3.54369 15.1141 3.54369H14.0332L13.3156 0.673268C13.2671 0.4767 13.1528 0.302682 12.9916 0.180175C12.8304 0.0576669 12.6321 -0.00594755 12.4297 -5.13223e-05H3.54376C3.34138 -0.00594755 3.14307 0.0576669 2.98188 0.180175C2.82069 0.302682 2.70633 0.4767 2.65782 0.673268L1.94021 3.54369H0.88595C0.650985 3.54369 0.425657 3.63704 0.259512 3.80319C0.093367 3.96933 1.48134e-05 4.19466 1.48134e-05 4.42962C1.48134e-05 4.66459 0.093367 4.88992 0.259512 5.05606C0.425657 5.22221 0.650985 5.31556 0.88595 5.31556ZM14.804 6.4584C14.7212 6.37629 14.623 6.31134 14.5151 6.26725C14.4072 6.22316 14.2916 6.20082 14.175 6.20149H1.77188C1.65529 6.20082 1.5397 6.22316 1.43176 6.26725C1.32382 6.31134 1.22566 6.37629 1.14288 6.4584L0.256944 7.34433C0.174834 7.42711 0.109856 7.5253 0.0657678 7.63324C0.0216796 7.74118 -0.000659288 7.85677 1.48134e-05 7.97336V11.5171C0.000510676 11.6807 0.0462988 11.841 0.132305 11.9801C0.218311 12.1193 0.341165 12.232 0.487268 12.3056L1.77188 12.9434V15.0608C1.77188 15.2958 1.86524 15.5211 2.03138 15.6873C2.19753 15.8534 2.42286 15.9468 2.65782 15.9468C2.89278 15.9468 3.11811 15.8534 3.28426 15.6873C3.4504 15.5211 3.54376 15.2958 3.54376 15.0608V12.403C3.54326 12.2394 3.49747 12.0792 3.41146 11.94C3.32546 11.8008 3.20261 11.6882 3.0565 11.6145L1.77188 10.9767V8.31889L2.13512 7.95563H13.8029L14.1661 8.31889V10.9767L12.8815 11.6145C12.7354 11.6882 12.6125 11.8008 12.5265 11.94C12.4405 12.0792 12.3947 12.2394 12.3942 12.403V15.0608C12.3942 15.2958 12.4876 15.5211 12.6537 15.6873C12.8199 15.8534 13.0452 15.9468 13.2802 15.9468C13.5151 15.9468 13.7405 15.8534 13.9066 15.6873C14.0728 15.5211 14.1661 15.2958 14.1661 15.0608V12.9523L15.4507 12.3145C15.5998 12.2414 15.7254 12.1279 15.8131 11.9869C15.9008 11.8459 15.9472 11.6831 15.9468 11.5171V7.97336C15.9475 7.85677 15.9252 7.74118 15.8811 7.63324C15.837 7.5253 15.772 7.42711 15.6899 7.34433L14.804 6.4584ZM13.289 9.74523C13.289 9.57001 13.2371 9.39875 13.1397 9.25306C13.0424 9.10737 12.904 8.99378 12.7421 8.92673C12.5803 8.85967 12.4021 8.84215 12.2303 8.87633C12.0584 8.91052 11.9006 8.9949 11.7767 9.1188C11.6528 9.2427 11.5684 9.40056 11.5342 9.57242C11.5 9.74427 11.5175 9.92239 11.5846 10.0843C11.6517 10.2462 11.7652 10.3845 11.9109 10.4819C12.0566 10.5792 12.2279 10.6312 12.4031 10.6312C12.6381 10.6312 12.8634 10.5378 13.0295 10.3717C13.1957 10.2055 13.289 9.9802 13.289 9.74523ZM10.6312 11.5171H5.31563C5.08066 11.5171 4.85533 11.6105 4.68919 11.7766C4.52304 11.9427 4.42969 12.1681 4.42969 12.403C4.42969 12.638 4.52304 12.8633 4.68919 13.0295C4.85533 13.1956 5.08066 13.289 5.31563 13.289H10.6312C10.8662 13.289 11.0915 13.1956 11.2577 13.0295C11.4238 12.8633 11.5172 12.638 11.5172 12.403C11.5172 12.1681 11.4238 11.9427 11.2577 11.7766C11.0915 11.6105 10.8662 11.5171 10.6312 11.5171Z" />
</svg>
