<svg width="15" height="15" viewBox="0 0 15 15" fill="#4D4C4C" xmlns="http://www.w3.org/2000/svg">
<path d="M12.6418 5.00005L14.8835 1.25835C14.9585 1.13183 14.9987 0.987698 15 0.840615C15.0013 0.693532 14.9636 0.548756 14.8908 0.420943C14.818 0.293131 14.7127 0.186846 14.5855 0.112916C14.4584 0.0389867 14.3139 2.5651e-05 14.1668 0H0.833341C0.612326 0 0.400374 0.0878103 0.244092 0.244092C0.0878103 0.400374 0 0.612326 0 0.833341V14.1668C0 14.3878 0.0878103 14.5998 0.244092 14.7561C0.400374 14.9123 0.612326 15.0001 0.833341 15.0001C1.05436 15.0001 1.26631 14.9123 1.42259 14.7561C1.57887 14.5998 1.66668 14.3878 1.66668 14.1668V1.66668H12.6918L10.9501 4.57504C10.877 4.70172 10.8384 4.84543 10.8384 4.99171C10.8384 5.13799 10.877 5.28169 10.9501 5.40838L12.6918 8.31673H4.16671C3.94569 8.31673 3.73374 8.40454 3.57746 8.56082C3.42118 8.71711 3.33337 8.92906 3.33337 9.15007C3.33337 9.37109 3.42118 9.58309 3.57746 9.73937C3.73374 9.89566 3.94569 9.98341 4.16671 9.98341H14.1668C14.3139 9.98339 14.4584 9.94443 14.5855 9.8705C14.7127 9.79657 14.818 9.69033 14.8908 9.56252C14.9636 9.43471 15.0013 9.28988 15 9.1428C14.9987 8.99572 14.9585 8.85158 14.8835 8.72506L12.6418 5.00005Z" />
</svg>
