<svg width="27" height="36" viewBox="0 0 27 36" fill="none" xmlns="http://www.w3.org/2000/svg">
<g clip-path="url(#clip0)">
<path d="M8.75755 13.5577C9.34554 13.0843 9.61574 12.3195 9.45562 11.5818C9.2955 10.8441 8.73248 10.2601 8.00113 10.0731V7.96781C10.0962 7.70387 11.6251 5.85666 11.4929 3.74914C11.3607 1.64163 9.61287 0 7.5012 0C5.38952 0 3.64167 1.64163 3.50944 3.74914C3.37721 5.85666 4.90611 7.70387 7.00121 7.96781V10.0731C6.26986 10.2601 5.70689 10.8441 5.54671 11.5818C5.38659 12.3195 5.6568 13.0843 6.24478 13.5577L1.70729 20.751C0.69987 22.6199 0.772987 24.8858 1.89875 26.6859C3.03283 28.7192 5.17304 29.9852 7.5012 30C9.82877 29.9856 11.9687 28.7203 13.1031 26.6879C14.2316 24.8808 14.3002 22.6062 13.2826 20.7345L8.75755 13.5577ZM4.50151 4.00271C4.50151 2.34603 5.84451 1.00302 7.5012 1.00302C9.15788 1.00302 10.5009 2.34603 10.5009 4.00271C10.5009 5.6594 9.15788 7.0024 7.5012 7.0024C5.84522 7.00076 4.50315 5.65869 4.50151 4.00271ZM6.79416 11.2948C6.9817 11.1073 7.23603 11.0019 7.5012 11.0019C8.05345 11.0019 8.50111 11.4496 8.50111 12.0019C8.49936 12.2722 8.38698 12.53 8.19013 12.7153C7.80415 12.3484 7.19824 12.3484 6.81227 12.7153C6.61541 12.53 6.50304 12.2722 6.50128 12.0019C6.50128 11.7367 6.60662 11.4824 6.79416 11.2948ZM12.2397 26.1874C11.2817 27.9097 9.47191 28.984 7.5012 29.0001C5.53043 28.9839 3.72071 27.9088 2.76368 26.1859C1.82147 24.7003 1.74554 22.8243 2.56472 21.2674L7.5012 13.4373L12.4262 21.251C13.2552 22.8105 13.184 24.6949 12.2397 26.1874Z" fill="white"/>
<path d="M11.5651 21.7584L7.92442 15.9845C7.82693 15.8477 7.66938 15.7666 7.50147 15.7666C7.33356 15.7666 7.17602 15.8477 7.07853 15.9845L6.1686 17.4283C6.03215 17.6611 6.10503 17.9602 6.33329 18.1041C6.56155 18.248 6.86281 18.1847 7.01402 17.9612L7.50147 17.1888L10.7046 22.2673C10.8167 22.4708 10.8981 22.6899 10.9461 22.9172C10.9962 23.1534 11.0146 23.3951 11.0011 23.6362C10.985 23.8969 10.9368 24.1546 10.8577 24.4036C10.7722 24.675 10.6565 24.936 10.5127 25.1815C10.3497 25.4607 10.1531 25.719 9.9273 25.9504C9.71304 26.1705 9.4716 26.3624 9.20889 26.5214C8.95292 26.6754 8.6775 26.7947 8.38995 26.8758C7.809 27.0382 7.19459 27.0382 6.61363 26.8758C6.32609 26.7945 6.05067 26.6751 5.7947 26.5208C5.5317 26.3624 5.29026 26.1706 5.07629 25.9504C4.85085 25.7181 4.65475 25.459 4.49235 25.1789C4.34881 24.9331 4.2331 24.672 4.14739 24.4005C4.06905 24.1518 4.02125 23.8944 4.0049 23.6341C3.9892 23.3927 4.00601 23.1502 4.05488 22.9132C4.10093 22.6958 4.17715 22.486 4.28138 22.2897L6.10216 19.4031C6.19754 19.252 6.2051 19.0616 6.12202 18.9035C6.03895 18.7454 5.87777 18.6436 5.69931 18.6365C5.52086 18.6294 5.35212 18.7181 5.25674 18.8691L3.42295 21.7833C3.26377 22.0723 3.14806 22.3831 3.07951 22.7057C3.0109 23.0306 2.98653 23.3632 3.00703 23.6946C3.02766 24.0362 3.09011 24.3741 3.19299 24.7005C3.30068 25.0433 3.44656 25.3728 3.62795 25.6829C3.83113 26.0344 4.07714 26.3594 4.36035 26.6503C4.63431 26.932 4.9433 27.1773 5.27977 27.3803C5.61214 27.5803 5.96976 27.735 6.34313 27.8402C7.10085 28.0535 7.90268 28.0535 8.66039 27.8402C9.03377 27.7351 9.39145 27.5804 9.72376 27.3803C10.0602 27.1773 10.3692 26.9319 10.6432 26.6503C10.926 26.3595 11.1716 26.0347 11.3746 25.6834C11.556 25.3733 11.7019 25.0438 11.8095 24.701C11.9127 24.3745 11.9755 24.0365 11.9965 23.6946C12.0167 23.3632 11.9922 23.0306 11.9235 22.7057C11.8524 22.3737 11.7316 22.0543 11.5651 21.7584Z" fill="white"/>
<path d="M26.2827 26.7345L21.7577 19.5577C22.3457 19.0843 22.6159 18.3195 22.4557 17.5818C22.2956 16.8441 21.7326 16.2601 21.0012 16.0731V13.9678C23.0963 13.7039 24.6252 11.8567 24.493 9.74914C24.3608 7.64163 22.6129 6 20.5013 6C18.3896 6 16.6417 7.64163 16.5095 9.74914C16.3773 11.8567 17.9062 13.7039 20.0013 13.9678V16.0731C19.2699 16.2601 18.7069 16.8441 18.5468 17.5818C18.3866 18.3195 18.6569 19.0843 19.2448 19.5577L14.7073 26.751C13.6999 28.6199 13.773 30.8858 14.8987 32.6859C16.0328 34.7192 18.173 35.9852 20.5012 36C22.8288 35.9856 24.9687 34.7203 26.1031 32.6879C27.2317 30.8808 27.3003 28.6062 26.2827 26.7345ZM17.5016 10.0027C17.5016 8.34603 18.8446 7.00302 20.5013 7.00302C22.1579 7.00302 23.5009 8.34603 23.5009 10.0027C23.5009 11.6594 22.1579 13.0024 20.5013 13.0024C18.8453 13.0008 17.5032 11.6587 17.5016 10.0027ZM19.7942 17.2948C19.9818 17.1073 20.2361 17.0019 20.5013 17.0019C21.0535 17.0019 21.5012 17.4496 21.5012 18.0019C21.4994 18.2722 21.387 18.53 21.1902 18.7153C20.8042 18.3484 20.1983 18.3484 19.8123 18.7153C19.6155 18.53 19.5031 18.2722 19.5013 18.0019C19.5013 17.7367 19.6067 17.4824 19.7942 17.2948ZM25.2398 32.1874C24.2946 33.9221 22.477 35.0017 20.5015 35.0017C18.526 35.0017 16.7084 33.9221 15.7632 32.1874C14.8206 30.7013 14.7448 28.8246 15.5647 27.2674L20.5012 19.4372L25.4262 27.2509C26.2553 28.8105 26.1841 30.6949 25.2398 32.1874Z" fill="white"/>
<path d="M24.5651 27.7584L20.9245 21.9845C20.827 21.8477 20.6695 21.7666 20.5016 21.7666C20.3337 21.7666 20.1761 21.8477 20.0786 21.9845L19.1687 23.4283C19.0322 23.6611 19.1051 23.9602 19.3334 24.1041C19.5616 24.248 19.8629 24.1847 20.0141 23.9612L20.5016 23.1888L23.7047 28.2673C23.8168 28.4708 23.8982 28.6899 23.9462 28.9172C23.9947 29.1543 24.0115 29.3967 23.9962 29.6381C23.98 29.8989 23.9319 30.1566 23.8527 30.4056C23.7672 30.677 23.6515 30.938 23.5078 31.1835C23.3462 31.4618 23.1512 31.7193 22.9273 31.9504C22.7131 32.1705 22.4716 32.3623 22.2089 32.5214C21.953 32.6754 21.6775 32.7947 21.39 32.8758C20.809 33.0382 20.1946 33.0382 19.6137 32.8758C19.3261 32.7945 19.0507 32.6751 18.7947 32.5208C18.5317 32.3623 18.2903 32.1706 18.0763 31.9504C17.8509 31.7181 17.6548 31.459 17.4924 31.1789C17.3488 30.9331 17.2331 30.672 17.1474 30.4005C17.0691 30.1518 17.0213 29.8944 17.0049 29.6341C16.9892 29.3927 17.0061 29.1502 17.0549 28.9132C17.101 28.6958 17.1772 28.4859 17.2814 28.2897L19.1022 25.4031C19.1976 25.252 19.2051 25.0616 19.1221 24.9035C19.039 24.7454 18.8778 24.6436 18.6993 24.6365C18.5209 24.6294 18.3522 24.7181 18.2568 24.8691L16.421 27.7813C16.2618 28.0703 16.1461 28.3811 16.0776 28.7037C16.0089 29.0286 15.9846 29.3613 16.0051 29.6926C16.0257 30.0341 16.0882 30.3718 16.191 30.698C16.2992 31.0417 16.4457 31.3722 16.628 31.683C16.8312 32.0345 17.0772 32.3595 17.3604 32.6504C17.6343 32.9321 17.9433 33.1774 18.2798 33.3803C18.6122 33.5804 18.9698 33.7351 19.3432 33.8403C20.1009 34.0536 20.9027 34.0536 21.6604 33.8403C22.0338 33.7351 22.3915 33.5804 22.7238 33.3803C23.0602 33.1773 23.3692 32.932 23.6432 32.6504C23.926 32.3595 24.1717 32.0347 24.3746 31.6835C24.556 31.3734 24.7019 31.0438 24.8096 30.7011C24.9127 30.3745 24.9755 30.0365 24.9965 29.6947C25.0167 29.3632 24.9922 29.0306 24.9235 28.7058C24.8525 28.3737 24.7316 28.0543 24.5651 27.7584Z" fill="white"/>
</g>
<defs>
<clipPath id="clip0">
<rect width="27" height="36" fill="white"/>
</clipPath>
</defs>
</svg>
