<svg width="30" height="30" viewBox="0 0 30 30" fill="none" xmlns="http://www.w3.org/2000/svg">
<g clip-path="url(#clip0)">
<path d="M28.8341 17.0098C29.795 16.0254 29.7833 14.4551 28.8165 13.4824C27.8497 12.5098 26.2735 12.5039 25.2892 13.4648L23.4845 15.2754V3.94336C23.4845 3.38672 23.2501 2.85352 22.8458 2.47852C22.4415 2.10352 21.8907 1.91016 21.3341 1.95117C21.0294 1.97461 20.7364 2.07422 20.4786 2.23242V2.00391C20.4786 0.896488 19.5821 4.22401e-06 18.4747 4.22401e-06C17.3673 4.22401e-06 16.4649 0.896488 16.4649 2.00391V2.22071C16.1603 2.03906 15.8145 1.94531 15.463 1.94531C14.3556 1.94531 13.4591 2.8418 13.4591 3.94336V7.61718L11.4493 2.08594C11.2618 1.57032 10.8634 1.1543 10.3595 0.937503C9.85556 0.720707 9.28134 0.726566 8.77744 0.955081C8.50791 1.07813 8.26767 1.26563 8.08603 1.5L8.00986 1.30078C7.82822 0.808597 7.45908 0.404301 6.98447 0.181645C6.25791 -0.158199 5.39658 -0.0292926 4.81064 0.515629C4.2247 1.06055 4.01377 1.89844 4.28916 2.6543L4.35947 2.84766C4.01963 2.7832 3.66806 2.8125 3.3458 2.92969C2.31455 3.30469 1.7872 4.44141 2.1622 5.47266L2.75986 7.11328C2.37314 7.04297 1.96884 7.08984 1.61142 7.24804C0.656344 7.70507 0.211032 8.81836 0.591891 9.81445L3.87314 18.8262C4.16025 19.6113 4.55869 20.3555 5.06259 21.0234L7.99814 24.9082C7.58799 25.1543 7.40634 25.6582 7.57041 26.1094L8.74814 29.3437C8.83603 29.5957 9.02353 29.7949 9.26377 29.9121C9.504 30.0234 9.77939 30.0351 10.0313 29.9472L11.5431 29.3965C11.7013 29.7656 12.0645 30.0058 12.4688 30.0058H22.9923C23.8185 30.0058 24.4923 29.332 24.4923 28.5058V25.998C24.4923 25.3535 24.0763 24.7851 23.4669 24.5859V22.248L28.8341 17.0098ZM17.4669 2.00391C17.4669 1.44727 17.9181 0.996097 18.4747 0.996097C19.0313 0.996097 19.4825 1.44727 19.4825 2.00391V9.05273C18.8321 8.79492 18.0997 8.82421 17.4728 9.14062L17.4669 2.00391ZM14.461 3.94336C14.461 3.53906 14.7071 3.17578 15.0821 3.01758C15.4571 2.85938 15.8849 2.94727 16.172 3.23438C16.3595 3.42188 16.4649 3.67383 16.4649 3.94336V10.0488C16.4122 10.1309 16.3595 10.2129 16.3126 10.3008L15.2638 12.5801L14.461 10.3711V3.94336ZM4.20713 16.834L1.52353 9.46875C1.33017 8.9707 1.54111 8.4082 2.01572 8.16211C2.26181 8.05078 2.54892 8.05078 2.80088 8.15625C3.05283 8.26171 3.24619 8.46679 3.33994 8.72461L5.19736 13.8281C5.2208 13.8867 5.25009 13.9394 5.29111 13.9805C5.30283 13.9922 5.31455 14.0039 5.32627 14.0156C5.35556 14.0449 5.39072 14.0684 5.43174 14.0918C5.44931 14.0976 5.46103 14.1094 5.47861 14.1152C5.51963 14.1328 5.5665 14.1445 5.61338 14.1504C5.62509 14.1504 5.63681 14.1562 5.65439 14.1562C5.66025 14.1562 5.66611 14.1562 5.67197 14.1562C5.83603 14.1562 5.98838 14.0742 6.08213 13.9453C6.17588 13.8164 6.19931 13.6406 6.14072 13.4883L4.2833 8.3789L3.0997 5.13281C2.91806 4.62305 3.17588 4.06055 3.68564 3.87305C4.19541 3.69141 4.75791 3.94922 4.94541 4.45898L7.47666 11.4199C7.50009 11.4785 7.52939 11.5312 7.57041 11.5723C7.58213 11.584 7.59384 11.5957 7.61142 11.6074C7.64072 11.6367 7.67588 11.6601 7.71103 11.6777C7.72861 11.6894 7.74619 11.6953 7.76377 11.7012C7.80478 11.7187 7.8458 11.7305 7.88681 11.7305C7.90439 11.7305 7.91611 11.7363 7.93369 11.7363C7.93955 11.7363 7.94541 11.7363 7.94541 11.7363C8.004 11.7363 8.06259 11.7246 8.11533 11.707C8.23838 11.6601 8.34384 11.5664 8.39658 11.4492C8.44931 11.332 8.46103 11.1914 8.41416 11.0684L5.22666 2.32031C5.04502 1.81055 5.30283 1.24805 5.81259 1.06055C6.05869 0.97266 6.32822 0.984378 6.56259 1.09571C6.79697 1.20703 6.97861 1.40625 7.07236 1.64649L10.2599 10.4062C10.3419 10.6289 10.5704 10.7637 10.8048 10.7285C11.0392 10.6934 11.2149 10.5 11.2325 10.2598C11.2384 10.1953 11.2267 10.125 11.2032 10.0605L10.6524 8.55468L8.70127 3.18164C8.50791 2.6836 8.71884 2.1211 9.19345 1.875C9.43955 1.76367 9.72666 1.75782 9.97861 1.86914C10.2306 1.98047 10.4239 2.17969 10.5177 2.4375L14.338 12.9258C14.4728 13.3066 14.8243 13.5644 15.2286 13.5762C15.6329 13.5996 16.0079 13.3711 16.172 13.0019L17.2267 10.7227C17.4317 10.2773 17.8419 9.96679 18.3224 9.88476C18.8028 9.80273 19.295 9.96679 19.629 10.3242C20.0509 10.7637 20.1622 11.4141 19.9044 11.9707L16.6642 18.914C16.6583 18.9316 16.6524 18.9551 16.6524 18.9726C16.6349 19.0137 16.6231 19.0605 16.6231 19.1015C16.6173 19.166 16.629 19.2363 16.6524 19.2949L17.4376 21.4512L12.3517 23.3027L11.4142 23.6484L8.98252 24.5332L5.85947 20.414C5.41416 19.8281 5.06259 19.1719 4.81064 18.4805L4.55283 17.7832L4.20713 16.834ZM9.68564 28.998L8.50791 25.7637L8.95322 25.5996L18.2345 22.2187C18.2872 22.2012 18.3458 22.1894 18.4044 22.1894C18.6153 22.1894 18.8028 22.3183 18.8731 22.5176L19.7052 24.8144C19.752 24.9375 19.7462 25.0781 19.6876 25.1953C19.629 25.3183 19.5294 25.4062 19.4063 25.4531L9.68564 28.998ZM19.4884 26.4961L19.752 26.4023C20.1681 26.25 20.4962 25.916 20.6427 25.4941H22.9806C23.256 25.4941 23.4786 25.7168 23.4786 25.9922V28.5C23.4786 28.7754 23.256 28.998 22.9806 28.998H12.6036L16.7403 27.4922L19.4884 26.4961ZM22.6114 21.6738C22.5645 21.7265 22.5235 21.7851 22.5001 21.8555C22.4767 21.914 22.4649 21.9726 22.4649 22.0312V22.0371V24.498H20.6603C20.6603 24.4922 20.6603 24.4863 20.6544 24.4863L19.8165 22.1894C19.5997 21.5976 19.0372 21.2109 18.4103 21.2109L17.6661 19.1601L20.8185 12.4043C21.2228 11.5488 21.0938 10.5352 20.4903 9.80273V4.03125C20.4786 3.48633 20.877 3.01758 21.422 2.95313C21.6974 2.92969 21.9728 3.0293 22.1778 3.2168C22.3829 3.4043 22.5001 3.66797 22.5001 3.94922V15.2812C22.5001 15.6855 22.7403 16.0547 23.1153 16.207C23.4903 16.3594 23.9239 16.2773 24.2052 15.9902L26.0099 14.1797C26.6017 13.623 27.5333 13.6348 28.1075 14.209C28.6817 14.7832 28.6993 15.7148 28.1427 16.3066L22.6114 21.6738Z" fill="white"/>
</g>
<defs>
<clipPath id="clip0">
<rect width="30" height="30" fill="white"/>
</clipPath>
</defs>
</svg>
