<svg xmlns="http://www.w3.org/2000/svg" width="35" height="35" viewBox="0 0 35 35"><defs><linearGradient id="4xsga" x1="29" x2="6" y1="35" y2="0" gradientUnits="userSpaceOnUse"><stop offset="0" stop-color="#fca88a"/><stop offset="1" stop-color="#f05455"/></linearGradient></defs><g><g><path fill="#fff" d="M17.5 0C27.165 0 35 7.835 35 17.5S27.165 35 17.5 35 0 27.165 0 17.5 7.835 0 17.5 0z"/><path fill="url(#4xsga)" d="M17.5 0C27.165 0 35 7.835 35 17.5S27.165 35 17.5 35 0 27.165 0 17.5 7.835 0 17.5 0z"/></g><g><path fill="#fff" d="M24.65 17.012c0 .807-.656 1.463-1.462 1.463a1.464 1.464 0 0 1-1.463-1.463.488.488 0 0 1 .975 0 .488.488 0 1 0 .714-.432c-.44-.232-.714-.711-.714-1.252v-.635l-4.757 4.757H16.2v-2.393c6.426-6.426 6.175-6.382 6.987-6.382.807 0 1.463.656 1.463 1.462 0 .732-.46 1.066-.975 1.58v1.611c0 .172.077.329.193.39.483.253.782.75.782 1.294zm-.975-4.875a.488.488 0 1 0-.976.002.488.488 0 0 0 .976-.002zm1.3 8.775v.488c0 .806-.656 1.463-1.463 1.463 0 .806-.655 1.462-1.462 1.462a1.464 1.464 0 0 1-1.462-1.462h-1.3c0 .806-.657 1.462-1.463 1.462a1.464 1.464 0 0 1-1.463-1.462H14.9c0 .806-.656 1.462-1.463 1.462a1.464 1.464 0 0 1-1.462-1.462h-.487a1.464 1.464 0 0 1-1.463-1.463v-.488h1.463a.487.487 0 0 0 0-.975h-1.463V17.5a2.44 2.44 0 0 1 2.437-2.438h2.275c.27 0 .488.218.488.488v4.875h9.262c.27 0 .488.218.488.487zm-11.7-1.95v-2.925h-.813c-.806 0-1.462.656-1.462 1.463v1.462zm.65 3.9a.488.488 0 1 0-.976.002.488.488 0 0 0 .976-.001zm4.388 0a.488.488 0 1 0-.977.002.488.488 0 0 0 .977-.001zm4.224 0a.488.488 0 1 0-.976.002.488.488 0 0 0 .976-.001z"/></g></g></svg>