<svg xmlns="http://www.w3.org/2000/svg" width="35" height="35" viewBox="0 0 35 35"><defs><linearGradient id="v90aa" x1="35" x2="0" y1="24" y2="11" gradientUnits="userSpaceOnUse"><stop offset="0" stop-color="#c71b1b"/><stop offset="1" stop-color="#e34040"/></linearGradient></defs><g><g><path fill="#fff" d="M17.5 0C27.165 0 35 7.835 35 17.5S27.165 35 17.5 35 0 27.165 0 17.5 7.835 0 17.5 0z"/><path fill="url(#v90aa)" d="M17.5 0C27.165 0 35 7.835 35 17.5S27.165 35 17.5 35 0 27.165 0 17.5 7.835 0 17.5 0z"/></g><g><path fill="#fff" d="M23.76 19.719a5.769 5.769 0 0 1-5.743 5.763H18a5.768 5.768 0 0 1-5.753-6.09c.093-3.271 1.705-4.09 1.773-4.124a.322.322 0 0 1 .457.243c.003.021.299 1.975 1.603 2.254.006-.841.044-2.115.33-3.248.412-1.627 1.59-3.332 3.004-4.344a.32.32 0 0 1 .506.26c0 1.495.752 2.509 1.624 3.682.94 1.268 2.007 2.704 2.183 4.996 0 0 .033.448.033.608zm-3.84 3.076c0-.06-.004-.115-.008-.17-.067-.928-.45-1.472-.82-1.999-.26-.368-.524-.745-.66-1.211a3.095 3.095 0 0 0-.648 1.228c-.113.474-.123 1-.123 1.456a.32.32 0 0 1-.32.32c-.539 0-.87-.366-1.056-.766-.1.217-.19.541-.203 1.017-.002.048-.002.087-.002.125 0 1.129.861 2.047 1.92 2.047s1.92-.918 1.92-2.047z"/></g></g></svg>