<svg xmlns="http://www.w3.org/2000/svg" width="55" height="55" viewBox="0 0 55 55"><defs><linearGradient id="rsh4a" x1="45" x2="10" y1="55" y2="0" gradientUnits="userSpaceOnUse"><stop offset="0" stop-color="#fce48d"/><stop offset="1" stop-color="#f37e7e"/></linearGradient></defs><g><g><path fill="#010000" d="M10 0h35c5.523 0 10 4.477 10 10v35c0 5.523-4.477 10-10 10H10C4.477 55 0 50.523 0 45V10C0 4.477 4.477 0 10 0z"/><path fill="url(#rsh4a)" d="M10 0h35c5.523 0 10 4.477 10 10v35c0 5.523-4.477 10-10 10H10C4.477 55 0 50.523 0 45V10C0 4.477 4.477 0 10 0z"/></g><g><path fill="#fff" d="M36.22 37.845l-.329.166c-.166.084-2.856 1.4-7.496 1.4-2.377 0-5.264-.344-8.586-1.377l-.353-.11-.012-.08v-5.09c0-3.464 2.832-6.282 6.313-6.282h4.184c3.483 0 6.314 2.818 6.314 6.281v5.092zm-8.37-11.707c-2.724 0-4.932-2.196-4.932-4.906 0-2.709 2.208-4.905 4.932-4.905s4.932 2.196 4.932 4.905c0 2.71-2.208 4.906-4.932 4.906z"/></g></g></svg>