<svg xmlns="http://www.w3.org/2000/svg" width="16" height="16" viewBox="0 0 16 16"><g><g><path fill="#fff" d="M15.639 12.66l-2.47-2.477c-.492-.491-1.307-.476-1.816.034l-1.245 1.248c-.079-.043-.16-.089-.245-.137-.786-.437-1.862-1.035-2.994-2.17-1.135-1.14-1.732-2.22-2.17-3.008l-.133-.24.835-.837.411-.412c.51-.512.524-1.328.033-1.821L3.375.362c-.49-.492-1.307-.477-1.816.035l-.697.702.02.019a4.018 4.018 0 0 0-.574 1.014 4.216 4.216 0 0 0-.255 1.03c-.326 2.711.91 5.19 4.263 8.552 4.635 4.648 8.371 4.297 8.532 4.28a4.168 4.168 0 0 0 1.03-.26c.367-.144.71-.339 1.008-.572l.015.013.705-.692c.51-.512.523-1.329.033-1.822z"/></g></g></svg>