<svg xmlns="http://www.w3.org/2000/svg" width="55" height="55" viewBox="0 0 55 55"><defs><linearGradient id="z6pqa" x1="45" x2="10" y1="55" y2="0" gradientUnits="userSpaceOnUse"><stop offset="0" stop-color="#3cd5e4"/><stop offset="1" stop-color="#1e1572"/></linearGradient></defs><g><g><path fill="#010000" d="M10 0h35c5.523 0 10 4.477 10 10v35c0 5.523-4.477 10-10 10H10C4.477 55 0 50.523 0 45V10C0 4.477 4.477 0 10 0z"/><path fill="url(#z6pqa)" d="M10 0h35c5.523 0 10 4.477 10 10v35c0 5.523-4.477 10-10 10H10C4.477 55 0 50.523 0 45V10C0 4.477 4.477 0 10 0z"/></g><g><path fill="#fff" d="M38.978 19.83l-.967.628-10.213 6.584-2.658-1.731a.53.53 0 0 0-.192-.117l-7.304-4.741-.963-.623a3.896 3.896 0 0 1 2.658-.874h16.98a4.164 4.164 0 0 1 2.66.874zM23.933 25.81l-6.96 7.245-.754.782a4.22 4.22 0 0 1-.787-2.519l.005-8.464a4.362 4.362 0 0 1 .574-2.205l.9.586zm14.763 8.741a4.279 4.279 0 0 1-2.344.682H19.339a4.061 4.061 0 0 1-2.36-.644l.766-.794 7.134-7.383 2.69 1.747.128.043h.042a.538.538 0 0 0 .133 0 .538.538 0 0 0 .133 0h.043l.09-.043 2.711-1.757 7.098 7.371zm.792-.719l-.76-.794-6.954-7.249 7.018-4.554.904-.58c.389.671.582 1.439.558 2.215v8.448c.035.9-.234 1.787-.766 2.514z"/></g></g></svg>