<svg xmlns="http://www.w3.org/2000/svg" width="65" height="65" viewBox="0 0 65 65"><defs><linearGradient id="jdg2a" x1="54" x2="11" y1="65" y2="0" gradientUnits="userSpaceOnUse"><stop offset="0" stop-color="#38901c"/><stop offset="1" stop-color="#61be44"/></linearGradient></defs><g><g><path fill="#181818" d="M32.5 0C50.45 0 65 14.55 65 32.5S50.45 65 32.5 65 0 50.45 0 32.5 14.55 0 32.5 0z"/><path fill="url(#jdg2a)" d="M32.5 0C50.45 0 65 14.55 65 32.5S50.45 65 32.5 65 0 50.45 0 32.5 14.55 0 32.5 0z"/></g><g><path fill="#fff" d="M40.639 36.66l-2.47-2.477c-.492-.491-1.307-.476-1.816.034l-1.245 1.248-.245-.137c-.786-.437-1.862-1.035-2.994-2.17-1.135-1.14-1.733-2.22-2.169-3.008-.046-.083-.09-.164-.134-.24l.835-.837.41-.412c.511-.512.525-1.328.034-1.821l-2.47-2.478c-.491-.492-1.306-.477-1.816.035l-.696.702.019.019a4.032 4.032 0 0 0-.574 1.014 4.212 4.212 0 0 0-.256 1.03c-.326 2.711.91 5.19 4.264 8.552 4.635 4.648 8.37 4.297 8.532 4.28.35-.042.687-.126 1.03-.26a4 4 0 0 0 1.007-.572l.016.013.705-.692c.51-.512.524-1.329.033-1.822z"/></g></g></svg>