<svg xmlns="http://www.w3.org/2000/svg" width="25" height="25" viewBox="0 0 25 25"><g><g><path fill="#e1554f" d="M12.5 0C19.404 0 25 5.597 25 12.5 25 19.404 19.404 25 12.5 25S0 19.404 0 12.5C0 5.597 5.596 0 12.5 0z"/></g><g><path fill="#fff" d="M18.233 7.226a.183.183 0 0 0-.198-.029l-11.88 5.516a.183.183 0 0 0-.003.33l3.362 1.65c.061.03.135.023.19-.018l3.269-2.442-2.567 2.638a.183.183 0 0 0-.051.142l.256 3.325a.183.183 0 0 0 .32.105l1.785-2.066 2.206 1.053a.183.183 0 0 0 .254-.11l3.11-9.902a.182.182 0 0 0-.053-.192z"/></g></g></svg>