<svg xmlns="http://www.w3.org/2000/svg" width="55" height="55" viewBox="0 0 55 55"><defs><linearGradient id="eja1a" x1="45" x2="10" y1="55" y2="0" gradientUnits="userSpaceOnUse"><stop offset="0" stop-color="#fca88a"/><stop offset="1" stop-color="#f05455"/></linearGradient></defs><g><g><path fill="#010000" d="M10 0h35c5.523 0 10 4.477 10 10v35c0 5.523-4.477 10-10 10H10C4.477 55 0 50.523 0 45V10C0 4.477 4.477 0 10 0z"/><path fill="url(#eja1a)" d="M10 0h35c5.523 0 10 4.477 10 10v35c0 5.523-4.477 10-10 10H10C4.477 55 0 50.523 0 45V10C0 4.477 4.477 0 10 0z"/></g><g><path fill="#fff" d="M37.5 26.75c0 1.24-1.01 2.25-2.25 2.25S33 27.99 33 26.75a.75.75 0 1 1 1.5 0 .751.751 0 1 0 1.098-.665C34.92 25.73 34.5 24.99 34.5 24.16v-.978L27.182 30.5H24.5v-3.682C34.385 16.933 34 17 35.25 17c1.24 0 2.25 1.01 2.25 2.25 0 1.127-.708 1.64-1.5 2.432v2.478c0 .264.119.505.296.599A2.244 2.244 0 0 1 37.5 26.75zm-1.5-7.5a.751.751 0 0 0-1.5 0 .751.751 0 0 0 1.5 0zm2 13.5v.75c0 1.24-1.01 2.25-2.25 2.25 0 1.24-1.01 2.25-2.25 2.25s-2.25-1.01-2.25-2.25h-2c0 1.24-1.01 2.25-2.25 2.25s-2.25-1.01-2.25-2.25H22.5c0 1.24-1.01 2.25-2.25 2.25S18 36.99 18 35.75h-.75c-1.24 0-2.25-1.01-2.25-2.25v-.75h2.25a.75.75 0 0 0 0-1.5H15V27.5a3.754 3.754 0 0 1 3.75-3.75h3.5a.75.75 0 0 1 .75.75V32h14.25a.75.75 0 0 1 .75.75zm-18-3v-4.5h-1.25c-1.24 0-2.25 1.01-2.25 2.25v2.25zm1 6a.75.75 0 1 0-1.501.001A.75.75 0 0 0 21 35.75zm6.75 0a.75.75 0 1 0-1.502.001.75.75 0 0 0 1.502-.001zm6.5 0a.751.751 0 0 0-1.5 0 .751.751 0 0 0 1.5 0z"/></g></g></svg>