<svg xmlns="http://www.w3.org/2000/svg" width="69" height="69" viewBox="0 0 69 69"><defs><mask id="ebl3b" width="2" height="2" x="-1" y="-1"><path fill="#fff" d="M18 18h33v33H18z"/><path d="M34.5 18C43.613 18 51 25.387 51 34.5S43.613 51 34.5 51 18 43.613 18 34.5 25.387 18 34.5 18z"/></mask><filter id="ebl3a" width="95" height="95" x="-13" y="-13" filterUnits="userSpaceOnUse"><feOffset in="SourceGraphic" result="FeOffset1184Out"/><feGaussianBlur in="FeOffset1184Out" result="FeGaussianBlur1185Out" stdDeviation="8.4 8.4"/></filter><clipPath id="ebl3c"><path fill="#fff" d="M15.333 53.667V15.333h38.334v38.334zM18 34.5C18 43.613 25.387 51 34.5 51S51 43.613 51 34.5 43.613 18 34.5 18 18 25.387 18 34.5z"/></clipPath></defs><g><g><g filter="url(#ebl3a)"><path fill="none" d="M34.5 18C43.613 18 51 25.387 51 34.5S43.613 51 34.5 51 18 43.613 18 34.5 25.387 18 34.5 18z" mask="url(&quot;#ebl3b&quot;)"/><path fill="#757575" fill-opacity=".35" d="M34.5 18C43.613 18 51 25.387 51 34.5S43.613 51 34.5 51 18 43.613 18 34.5 25.387 18 34.5 18z"/></g><g filter="url(#ebl3a)"><path fill="none" d="M34.5 18C43.613 18 51 25.387 51 34.5S43.613 51 34.5 51 18 43.613 18 34.5 25.387 18 34.5 18z" mask="url(&quot;#ebl3b&quot;)"/><path fill="#757575" fill-opacity=".35" d="M34.5 18C43.613 18 51 25.387 51 34.5S43.613 51 34.5 51 18 43.613 18 34.5 25.387 18 34.5 18z"/></g><path d="M34.5 18C43.613 18 51 25.387 51 34.5S43.613 51 34.5 51 18 43.613 18 34.5 25.387 18 34.5 18z"/><path fill="#272727" d="M34.5 18C43.613 18 51 25.387 51 34.5S43.613 51 34.5 51 18 43.613 18 34.5 25.387 18 34.5 18z"/><path fill="none" stroke="#2f2f2f" stroke-linecap="round" stroke-linejoin="round" stroke-miterlimit="50" stroke-width="5.33" d="M34.5 18C43.613 18 51 25.387 51 34.5S43.613 51 34.5 51 18 43.613 18 34.5 25.387 18 34.5 18z" clip-path="url(&quot;#ebl3c&quot;)"/></g><g><path fill="#fff" d="M38.818 34.81L35 40.375l-3.825-5.57c-1.426-1.92-1.219-5.085.45-6.768.901-.91 2.1-1.41 3.375-1.41s2.474.5 3.375 1.41c1.669 1.683 1.876 4.849.443 6.775zm-2.032-3.414c0-.969-.781-1.757-1.742-1.757-.96 0-1.742.788-1.742 1.757 0 .97.781 1.758 1.742 1.758.96 0 1.742-.789 1.742-1.758z"/></g></g></svg>