<svg xmlns="http://www.w3.org/2000/svg" width="55" height="55" viewBox="0 0 55 55"><defs><linearGradient id="e0t5a" x1="45" x2="10" y1="55" y2="0" gradientUnits="userSpaceOnUse"><stop offset="0" stop-color="#657598"/><stop offset="1" stop-color="#5f2a67"/></linearGradient></defs><g><g><path fill="#010000" d="M10 0h35c5.523 0 10 4.477 10 10v35c0 5.523-4.477 10-10 10H10C4.477 55 0 50.523 0 45V10C0 4.477 4.477 0 10 0z"/><path fill="url(#e0t5a)" d="M10 0h35c5.523 0 10 4.477 10 10v35c0 5.523-4.477 10-10 10H10C4.477 55 0 50.523 0 45V10C0 4.477 4.477 0 10 0z"/></g><g><path fill="#fff" d="M25.424 28.509v1.546a.443.443 0 0 1-.443.443h-1.545a.443.443 0 0 1-.443-.443v-1.546c0-.244.198-.443.443-.443h1.545c.245 0 .443.199.443.443zm3.863 1.546a.443.443 0 0 1-.443.443h-1.546a.443.443 0 0 1-.442-.443V28.51c0-.244.198-.443.442-.443h1.546c.245 0 .443.199.443.443zm3.863 0a.443.443 0 0 1-.443.443H31.16a.443.443 0 0 1-.443-.443V28.51c0-.244.199-.443.443-.443h1.546c.244 0 .443.199.443.443zm-7.726 2.318v1.546a.443.443 0 0 1-.443.443h-1.545a.443.443 0 0 1-.443-.443v-1.546c0-.244.198-.442.443-.442h1.545c.245 0 .443.198.443.442zm3.863 1.546a.443.443 0 0 1-.443.443h-1.546a.442.442 0 0 1-.442-.443v-1.546c0-.244.198-.442.442-.442h1.546c.245 0 .443.198.443.442zm3.863-1.546v1.546a.443.443 0 0 1-.443.443H31.16a.443.443 0 0 1-.443-.443v-1.546c0-.244.199-.442.443-.442h1.546c.244 0 .443.198.443.442zm4.461-10.711V35.5a1.76 1.76 0 0 1-1.749 1.76H20.28a1.758 1.758 0 0 1-1.749-1.76V21.662c0-.949.766-1.72 1.699-1.748v2.36c0 1.068.865 1.928 1.932 1.928h1.219c1.066 0 1.943-.86 1.943-1.927v-2.37h5.494v2.37c0 1.067.877 1.927 1.944 1.927h1.219c1.067 0 1.932-.86 1.932-1.927v-2.361c.932.028 1.698.8 1.698 1.748zm-2.264 12.976V27.49a.756.756 0 0 0-.756-.756H21.518a.756.756 0 0 0-.756.756v7.148c0 .418.339.757.756.757h13.073a.756.756 0 0 0 .756-.757zM21.495 22.274v-3.871c0-.366.296-.663.662-.663h1.206c.366 0 .663.297.663.663v3.87a.662.662 0 0 1-.663.663h-1.206a.662.662 0 0 1-.662-.662zm10.589 0v-3.871c0-.366.296-.663.662-.663h1.206c.366 0 .663.297.663.663v3.87a.662.662 0 0 1-.663.663h-1.206a.662.662 0 0 1-.662-.662z"/></g></g></svg>