<svg xmlns="http://www.w3.org/2000/svg" width="42" height="27" viewBox="0 0 42 27"><defs><mask id="sfgdb" width="2" height="2" x="-1" y="-1"><path fill="#fff" d="M6 7h30v13H6z"/><path d="M19.556 12.146l.7 1.889H18.87zm15.995 6.185c0 .922-.745 1.669-1.665 1.669H8.115a1.672 1.672 0 0 1-1.605-2.114l2.67-9.662C9.38 7.5 10.036 7 10.785 7h20.43c.748 0 1.405.5 1.605 1.224l2.651 9.593c.052.162.08.335.08.514zm-18.62-6.6c.21 0 .38-.171.38-.382v-.23a.38.38 0 0 0-.38-.38h-3.634a.38.38 0 0 0-.38.38v.23c0 .21.17.381.38.381h1.235v4.15c0 .21.17.382.38.382h.408c.21 0 .38-.171.38-.381v-4.15zm5.24 4.008l-1.902-4.761a.38.38 0 0 0-.353-.24h-.692a.38.38 0 0 0-.354.243l-1.85 4.761a.381.381 0 0 0 .354.52h.418c.16 0 .303-.1.357-.251l.358-.988h2.128l.382.994a.38.38 0 0 0 .354.245h.448a.38.38 0 0 0 .353-.523zm4.92-.07l-1.49-2.248 1.34-2.096a.382.382 0 0 0-.32-.587h-.448a.38.38 0 0 0-.325.182l-.939 1.54-.96-1.542a.38.38 0 0 0-.323-.18h-.457a.38.38 0 0 0-.319.588l1.328 2.055-1.498 2.29a.382.382 0 0 0 .319.59h.49a.38.38 0 0 0 .32-.174l1.078-1.682 1.076 1.681c.07.11.19.176.32.176h.492a.38.38 0 0 0 .317-.592zm1.993-4.55a.38.38 0 0 0-.38-.38h-.408a.38.38 0 0 0-.38.38v4.762c0 .21.17.38.38.38h.408c.21 0 .38-.17.38-.38z"/></mask><filter id="sfgda" width="70" height="53" x="-14" y="-13" filterUnits="userSpaceOnUse"><feOffset in="SourceGraphic" result="FeOffset1115Out"/><feGaussianBlur in="FeOffset1115Out" result="FeGaussianBlur1116Out" stdDeviation="4 4"/></filter></defs><g><g><path fill="#fff" d="M11 10h20v7H11z"/></g><g><g filter="url(#sfgda)"><path fill="none" d="M19.556 12.146l.7 1.889H18.87zm15.995 6.185c0 .922-.745 1.669-1.665 1.669H8.115a1.672 1.672 0 0 1-1.605-2.114l2.67-9.662C9.38 7.5 10.036 7 10.785 7h20.43c.748 0 1.405.5 1.605 1.224l2.651 9.593c.052.162.08.335.08.514zm-18.62-6.6c.21 0 .38-.171.38-.382v-.23a.38.38 0 0 0-.38-.38h-3.634a.38.38 0 0 0-.38.38v.23c0 .21.17.381.38.381h1.235v4.15c0 .21.17.382.38.382h.408c.21 0 .38-.171.38-.381v-4.15zm5.24 4.008l-1.902-4.761a.38.38 0 0 0-.353-.24h-.692a.38.38 0 0 0-.354.243l-1.85 4.761a.381.381 0 0 0 .354.52h.418c.16 0 .303-.1.357-.251l.358-.988h2.128l.382.994a.38.38 0 0 0 .354.245h.448a.38.38 0 0 0 .353-.523zm4.92-.07l-1.49-2.248 1.34-2.096a.382.382 0 0 0-.32-.587h-.448a.38.38 0 0 0-.325.182l-.939 1.54-.96-1.542a.38.38 0 0 0-.323-.18h-.457a.38.38 0 0 0-.319.588l1.328 2.055-1.498 2.29a.382.382 0 0 0 .319.59h.49a.38.38 0 0 0 .32-.174l1.078-1.682 1.076 1.681c.07.11.19.176.32.176h.492a.38.38 0 0 0 .317-.592zm1.993-4.55a.38.38 0 0 0-.38-.38h-.408a.38.38 0 0 0-.38.38v4.762c0 .21.17.38.38.38h.408c.21 0 .38-.17.38-.38z" mask="url(&quot;#sfgdb&quot;)"/><path fill="#149bd4" fill-opacity=".15" d="M19.556 12.146l.7 1.889H18.87zm15.995 6.185c0 .922-.745 1.669-1.665 1.669H8.115a1.672 1.672 0 0 1-1.605-2.114l2.67-9.662C9.38 7.5 10.036 7 10.785 7h20.43c.748 0 1.405.5 1.605 1.224l2.651 9.593c.052.162.08.335.08.514zm-18.62-6.6c.21 0 .38-.171.38-.382v-.23a.38.38 0 0 0-.38-.38h-3.634a.38.38 0 0 0-.38.38v.23c0 .21.17.381.38.381h1.235v4.15c0 .21.17.382.38.382h.408c.21 0 .38-.171.38-.381v-4.15zm5.24 4.008l-1.902-4.761a.38.38 0 0 0-.353-.24h-.692a.38.38 0 0 0-.354.243l-1.85 4.761a.381.381 0 0 0 .354.52h.418c.16 0 .303-.1.357-.251l.358-.988h2.128l.382.994a.38.38 0 0 0 .354.245h.448a.38.38 0 0 0 .353-.523zm4.92-.07l-1.49-2.248 1.34-2.096a.382.382 0 0 0-.32-.587h-.448a.38.38 0 0 0-.325.182l-.939 1.54-.96-1.542a.38.38 0 0 0-.323-.18h-.457a.38.38 0 0 0-.319.588l1.328 2.055-1.498 2.29a.382.382 0 0 0 .319.59h.49a.38.38 0 0 0 .32-.174l1.078-1.682 1.076 1.681c.07.11.19.176.32.176h.492a.38.38 0 0 0 .317-.592zm1.993-4.55a.38.38 0 0 0-.38-.38h-.408a.38.38 0 0 0-.38.38v4.762c0 .21.17.38.38.38h.408c.21 0 .38-.17.38-.38z"/></g><g filter="url(#sfgda)"><path fill="none" d="M19.556 12.146l.7 1.889H18.87zm15.995 6.185c0 .922-.745 1.669-1.665 1.669H8.115a1.672 1.672 0 0 1-1.605-2.114l2.67-9.662C9.38 7.5 10.036 7 10.785 7h20.43c.748 0 1.405.5 1.605 1.224l2.651 9.593c.052.162.08.335.08.514zm-18.62-6.6c.21 0 .38-.171.38-.382v-.23a.38.38 0 0 0-.38-.38h-3.634a.38.38 0 0 0-.38.38v.23c0 .21.17.381.38.381h1.235v4.15c0 .21.17.382.38.382h.408c.21 0 .38-.171.38-.381v-4.15zm5.24 4.008l-1.902-4.761a.38.38 0 0 0-.353-.24h-.692a.38.38 0 0 0-.354.243l-1.85 4.761a.381.381 0 0 0 .354.52h.418c.16 0 .303-.1.357-.251l.358-.988h2.128l.382.994a.38.38 0 0 0 .354.245h.448a.38.38 0 0 0 .353-.523zm4.92-.07l-1.49-2.248 1.34-2.096a.382.382 0 0 0-.32-.587h-.448a.38.38 0 0 0-.325.182l-.939 1.54-.96-1.542a.38.38 0 0 0-.323-.18h-.457a.38.38 0 0 0-.319.588l1.328 2.055-1.498 2.29a.382.382 0 0 0 .319.59h.49a.38.38 0 0 0 .32-.174l1.078-1.682 1.076 1.681c.07.11.19.176.32.176h.492a.38.38 0 0 0 .317-.592zm1.993-4.55a.38.38 0 0 0-.38-.38h-.408a.38.38 0 0 0-.38.38v4.762c0 .21.17.38.38.38h.408c.21 0 .38-.17.38-.38z" mask="url(&quot;#sfgdb&quot;)"/><path fill="#149bd4" fill-opacity=".15" d="M19.556 12.146l.7 1.889H18.87zm15.995 6.185c0 .922-.745 1.669-1.665 1.669H8.115a1.672 1.672 0 0 1-1.605-2.114l2.67-9.662C9.38 7.5 10.036 7 10.785 7h20.43c.748 0 1.405.5 1.605 1.224l2.651 9.593c.052.162.08.335.08.514zm-18.62-6.6c.21 0 .38-.171.38-.382v-.23a.38.38 0 0 0-.38-.38h-3.634a.38.38 0 0 0-.38.38v.23c0 .21.17.381.38.381h1.235v4.15c0 .21.17.382.38.382h.408c.21 0 .38-.171.38-.381v-4.15zm5.24 4.008l-1.902-4.761a.38.38 0 0 0-.353-.24h-.692a.38.38 0 0 0-.354.243l-1.85 4.761a.381.381 0 0 0 .354.52h.418c.16 0 .303-.1.357-.251l.358-.988h2.128l.382.994a.38.38 0 0 0 .354.245h.448a.38.38 0 0 0 .353-.523zm4.92-.07l-1.49-2.248 1.34-2.096a.382.382 0 0 0-.32-.587h-.448a.38.38 0 0 0-.325.182l-.939 1.54-.96-1.542a.38.38 0 0 0-.323-.18h-.457a.38.38 0 0 0-.319.588l1.328 2.055-1.498 2.29a.382.382 0 0 0 .319.59h.49a.38.38 0 0 0 .32-.174l1.078-1.682 1.076 1.681c.07.11.19.176.32.176h.492a.38.38 0 0 0 .317-.592zm1.993-4.55a.38.38 0 0 0-.38-.38h-.408a.38.38 0 0 0-.38.38v4.762c0 .21.17.38.38.38h.408c.21 0 .38-.17.38-.38z"/></g><path d="M19.556 12.146l.7 1.889H18.87zm15.995 6.185c0 .922-.745 1.669-1.665 1.669H8.115a1.672 1.672 0 0 1-1.605-2.114l2.67-9.662C9.38 7.5 10.036 7 10.785 7h20.43c.748 0 1.405.5 1.605 1.224l2.651 9.593c.052.162.08.335.08.514zm-18.62-6.6c.21 0 .38-.171.38-.382v-.23a.38.38 0 0 0-.38-.38h-3.634a.38.38 0 0 0-.38.38v.23c0 .21.17.381.38.381h1.235v4.15c0 .21.17.382.38.382h.408c.21 0 .38-.171.38-.381v-4.15zm5.24 4.008l-1.902-4.761a.38.38 0 0 0-.353-.24h-.692a.38.38 0 0 0-.354.243l-1.85 4.761a.381.381 0 0 0 .354.52h.418c.16 0 .303-.1.357-.251l.358-.988h2.128l.382.994a.38.38 0 0 0 .354.245h.448a.38.38 0 0 0 .353-.523zm4.92-.07l-1.49-2.248 1.34-2.096a.382.382 0 0 0-.32-.587h-.448a.38.38 0 0 0-.325.182l-.939 1.54-.96-1.542a.38.38 0 0 0-.323-.18h-.457a.38.38 0 0 0-.319.588l1.328 2.055-1.498 2.29a.382.382 0 0 0 .319.59h.49a.38.38 0 0 0 .32-.174l1.078-1.682 1.076 1.681c.07.11.19.176.32.176h.492a.38.38 0 0 0 .317-.592zm1.993-4.55a.38.38 0 0 0-.38-.38h-.408a.38.38 0 0 0-.38.38v4.762c0 .21.17.38.38.38h.408c.21 0 .38-.17.38-.38z"/></g></g></svg>