<svg xmlns="http://www.w3.org/2000/svg" width="35" height="35" viewBox="0 0 35 35"><g><g><path fill="#fff" d="M17.5 0C27.165 0 35 7.835 35 17.5S27.165 35 17.5 35 0 27.165 0 17.5 7.835 0 17.5 0z"/><path fill="#f9d405" d="M17.5 0C27.165 0 35 7.835 35 17.5S27.165 35 17.5 35 0 27.165 0 17.5 7.835 0 17.5 0z"/></g><g><path fill="#1e1e1e" d="M16.966 16.532l.5 1.35h-.99zm11.437 4.422c0 .66-.533 1.193-1.191 1.193H8.785a1.194 1.194 0 0 1-1.147-1.512l1.909-6.908a1.191 1.191 0 0 1 1.148-.874h14.607c.535 0 1.005.357 1.148.874l1.895 6.86a1.2 1.2 0 0 1 .058.367zm-13.314-4.72c.15 0 .272-.121.272-.272v-.164a.272.272 0 0 0-.272-.272h-2.598a.272.272 0 0 0-.272.272v.164c0 .15.121.273.272.273h.882v2.967c0 .15.122.272.273.272h.291c.15 0 .272-.121.272-.272v-2.967zm3.747 2.867l-1.36-3.404a.271.271 0 0 0-.252-.171h-.495a.272.272 0 0 0-.254.173l-1.323 3.404a.272.272 0 0 0 .254.371h.299a.272.272 0 0 0 .255-.179l.256-.706h1.522l.272.71c.04.106.142.175.254.175h.32a.271.271 0 0 0 .252-.373zm3.518-.05l-1.066-1.607.958-1.5a.272.272 0 1 0-.229-.42h-.32a.272.272 0 0 0-.232.132l-.671 1.1-.687-1.102a.271.271 0 0 0-.23-.128h-.328a.272.272 0 0 0-.228.42l.95 1.469-1.071 1.638a.273.273 0 0 0 .227.421h.35a.271.271 0 0 0 .23-.125l.77-1.202.77 1.202c.05.078.136.125.229.125h.352a.272.272 0 0 0 .226-.423zm1.424-3.253a.272.272 0 0 0-.271-.272h-.292a.272.272 0 0 0-.272.272v3.404c0 .15.122.272.272.272h.292c.15 0 .271-.121.271-.272z"/></g></g></svg>