<svg xmlns="http://www.w3.org/2000/svg" width="12" height="16" viewBox="0 0 12 16"><g><g><path fill="#fff" d="M12.12 6.851v7.658c0 .842-.688 1.531-1.53 1.531H1.41c-.842 0-1.53-.69-1.53-1.531V6.85c0-.842.688-1.531 1.53-1.531h.765V3.789A3.79 3.79 0 0 1 6-.04a3.79 3.79 0 0 1 3.825 3.829v1.53h.765c.842 0 1.53.69 1.53 1.532zM7.53 10.68c0-.842-.689-1.531-1.53-1.531-.842 0-1.53.689-1.53 1.531s.688 1.531 1.53 1.531c.841 0 1.53-.689 1.53-1.531zm.841-6.891A2.385 2.385 0 0 0 6 1.415a2.384 2.384 0 0 0-2.371 2.374v1.53H8.37z"/></g></g></svg>