<svg xmlns="http://www.w3.org/2000/svg" width="55" height="55" viewBox="0 0 55 55"><defs><linearGradient id="re3ba" x1="45" x2="10" y1="55" y2="0" gradientUnits="userSpaceOnUse"><stop offset="0" stop-color="#cfcfcf"/><stop offset="1" stop-color="#9a9a9a"/></linearGradient></defs><g><g><path fill="#dedede" d="M10 0h35c5.523 0 10 4.477 10 10v35c0 5.523-4.477 10-10 10H10C4.477 55 0 50.523 0 45V10C0 4.477 4.477 0 10 0z"/><path fill="url(#re3ba)" d="M10 0h35c5.523 0 10 4.477 10 10v35c0 5.523-4.477 10-10 10H10C4.477 55 0 50.523 0 45V10C0 4.477 4.477 0 10 0z"/></g><g><path fill="#131313" d="M28 26.293a1.707 1.707 0 1 1 0 3.414 1.707 1.707 0 0 1 0-3.414zm9.902.5v2.408c0 .226-.18.443-.402.485l-2.383.447a7.382 7.382 0 0 1-.583 1.409l1.366 1.996a.512.512 0 0 1-.06.628l-1.7 1.702a.513.513 0 0 1-.629.058l-2.008-1.374a7.443 7.443 0 0 1-1.408.574L29.65 37.5a.513.513 0 0 1-.485.402h-2.408a.514.514 0 0 1-.485-.402l-.45-2.397a7.395 7.395 0 0 1-1.35-.563l-1.983 1.357a.514.514 0 0 1-.628-.059l-1.702-1.702a.512.512 0 0 1-.059-.628l1.357-1.983a7.342 7.342 0 0 1-.574-1.392l-2.384-.447a.513.513 0 0 1-.402-.485v-2.408c0-.226.18-.443.402-.485l2.386-.447c.143-.476.33-.934.561-1.364l-1.372-2.006a.512.512 0 0 1 .059-.628l1.702-1.702c.16-.16.44-.186.628-.058l1.993 1.363a7.35 7.35 0 0 1 1.365-.57l.45-2.397a.513.513 0 0 1 .485-.402h2.408c.226 0 .443.18.486.402l.444 2.374c.498.146.975.34 1.423.581l2.019-1.38a.512.512 0 0 1 .627.058l1.702 1.702c.16.16.186.44.059.628l-1.38 2.018c.234.435.425.898.57 1.38l2.385.448a.513.513 0 0 1 .403.485zM32.132 28a4.132 4.132 0 1 0-8.264.003A4.132 4.132 0 0 0 32.13 28z"/></g></g></svg>