<svg xmlns="http://www.w3.org/2000/svg" width="35" height="35" viewBox="0 0 35 35"><g><g><path fill="#fff" d="M17.5 0C27.165 0 35 7.835 35 17.5S27.165 35 17.5 35 0 27.165 0 17.5 7.835 0 17.5 0z"/></g><g><path fill="#c71b1b" d="M26.566 15.456c0 .73-.146 1.403-.415 2.05h-3.862l-.873-1.745c-.171-.343-.733-.343-.905 0l-1.573 3.144-.56-1.12c-.171-.343-.733-.343-.905 0l-.56 1.12-1.571-3.144c-.173-.344-.734-.344-.906 0l-.873 1.745H9.701a5.263 5.263 0 0 1-.415-2.05c0-2.795 1.992-4.903 4.59-4.903 2.048 0 3.361 1.418 4.05 2.695.689-1.277 2.003-2.695 4.05-2.695 2.598 0 4.59 2.108 4.59 4.903zm-.946 3.062c-1.042 1.64-2.919 3.197-5.266 5.178-.659.556-1.36 1.148-2.096 1.786a.505.505 0 0 1-.664 0 202.45 202.45 0 0 0-2.096-1.786c-2.347-1.981-4.224-3.538-5.266-5.178h3.644a.507.507 0 0 0 .453-.28l.56-1.119 1.572 3.144c.172.344.733.344.905 0l.56-1.119.56 1.12a.506.506 0 0 0 .905 0l1.573-3.145.56 1.12c.085.171.26.28.452.28z"/></g></g></svg>