<svg xmlns="http://www.w3.org/2000/svg" width="65" height="65" viewBox="0 0 65 65"><defs><linearGradient id="oyaga" x1="54" x2="11" y1="65" y2="0" gradientUnits="userSpaceOnUse"><stop offset="0" stop-color="#822824"/><stop offset="1" stop-color="#d04c47"/></linearGradient></defs><g><g><path fill="#181818" d="M32.5 0C50.45 0 65 14.55 65 32.5S50.45 65 32.5 65 0 50.45 0 32.5 14.55 0 32.5 0z"/><path fill="url(#oyaga)" d="M32.5 0C50.45 0 65 14.55 65 32.5S50.45 65 32.5 65 0 50.45 0 32.5 14.55 0 32.5 0z"/></g><g><path fill="#fff" d="M40.639 36.66l-2.47-2.477c-.492-.491-1.307-.476-1.816.034l-1.245 1.248c-.079-.043-.16-.089-.245-.137-.786-.437-1.862-1.035-2.993-2.17-1.136-1.14-1.733-2.22-2.17-3.008-.046-.083-.09-.164-.134-.24l.835-.837.411-.412c.51-.512.524-1.328.033-1.821l-2.47-2.478c-.49-.492-1.306-.477-1.816.035l-.697.702.02.019a4.038 4.038 0 0 0-.574 1.014 4.212 4.212 0 0 0-.255 1.03c-.326 2.711.91 5.19 4.263 8.552 4.635 4.648 8.37 4.297 8.532 4.28a4.17 4.17 0 0 0 1.03-.26c.367-.144.71-.339 1.008-.572l.015.013.705-.692c.51-.512.523-1.329.033-1.822z"/></g></g></svg>