<svg xmlns="http://www.w3.org/2000/svg" width="55" height="55" viewBox="0 0 55 55"><defs><linearGradient id="q5s8a" x1="45" x2="10" y1="55" y2="0" gradientUnits="userSpaceOnUse"><stop offset="0" stop-color="#6fd8f4"/><stop offset="1" stop-color="#685ff1"/></linearGradient></defs><g><g><path fill="#010000" d="M10 0h35c5.523 0 10 4.477 10 10v35c0 5.523-4.477 10-10 10H10C4.477 55 0 50.523 0 45V10C0 4.477 4.477 0 10 0z"/><path fill="url(#q5s8a)" d="M10 0h35c5.523 0 10 4.477 10 10v35c0 5.523-4.477 10-10 10H10C4.477 55 0 50.523 0 45V10C0 4.477 4.477 0 10 0z"/></g><g><path fill="#fff" d="M37.239 28c0 5.384-4.366 9.75-9.751 9.75-5.384 0-9.75-4.366-9.75-9.75 0-5.385 4.366-9.75 9.75-9.75 5.385 0 9.75 4.365 9.75 9.75zm-4.862 1.18a.674.674 0 0 0-.674-.674h-3.54v-6.21a.674.674 0 0 0-1.35 0v6.884c0 .372.303.674.675.674.014 0 .027-.003.041-.004.014 0 .027.004.04.004h4.135a.674.674 0 0 0 .673-.674z"/></g></g></svg>