<svg width="78" height="81" viewBox="0 0 78 81" fill="none" xmlns="http://www.w3.org/2000/svg">
<g filter="url(#filter0_d)">
<path d="M42.0927 54.9391L43.0922 54.9077L42.0927 54.9391ZM42.1162 55.1192L41.1338 55.3057L42.1162 55.1192ZM37.09 55.4989L36.0903 55.5231L37.09 55.4989ZM37.0862 55.6633L36.0875 55.6116L37.0862 55.6633ZM38.0897 55.4746C38.0584 54.1857 38.8506 37.4795 39.5386 23.3565L37.541 23.2592C36.857 37.2998 36.0566 54.1372 36.0903 55.5231L38.0897 55.4746ZM39.5172 23.3614C40.2119 36.7988 41.019 52.6147 41.0932 54.9706L43.0922 54.9077C43.0172 52.5251 42.2082 36.6761 41.5146 23.2582L39.5172 23.3614ZM41.5005 58.5731C42.7487 57.7626 43.3602 56.3104 43.0987 54.9327L41.1338 55.3057C41.2405 55.8682 40.9933 56.5178 40.4112 56.8958L41.5005 58.5731ZM36.6244 57.6239C37.6871 59.2603 39.8842 59.6228 41.5005 58.5731L40.4112 56.8958C39.6445 57.3937 38.7141 57.1696 38.3018 56.5347L36.6244 57.6239ZM36.0875 55.6116C36.0519 56.2998 36.2222 57.0045 36.6244 57.6239L38.3018 56.5347C38.1405 56.2863 38.07 56.0029 38.0849 55.715L36.0875 55.6116ZM41.0932 54.9706C41.098 55.1247 41.1212 55.2396 41.1338 55.3057L43.0987 54.9327C43.097 54.9241 43.0957 54.9173 43.0946 54.911C43.0934 54.9048 43.0925 54.9002 43.0919 54.8965C43.0905 54.889 43.0903 54.887 43.0904 54.888C43.0906 54.8895 43.0911 54.8932 43.0915 54.898C43.092 54.9027 43.0921 54.9062 43.0922 54.9077L41.0932 54.9706ZM39.5386 23.3565C39.5395 23.3383 39.5417 23.3277 39.5427 23.3234C39.5437 23.3191 39.544 23.3196 39.5422 23.3235C39.5404 23.3273 39.5373 23.3327 39.5328 23.3386C39.5283 23.3444 39.5234 23.3494 39.5187 23.3535C39.5092 23.3617 39.5035 23.3633 39.5055 23.3626C39.5065 23.3623 39.5089 23.3615 39.5125 23.3609C39.5162 23.3603 39.5206 23.3599 39.5254 23.3599C39.5301 23.3599 39.5346 23.3603 39.5384 23.361C39.5422 23.3616 39.5448 23.3624 39.546 23.3628C39.5486 23.3637 39.5436 23.3625 39.5349 23.355C39.5306 23.3512 39.5261 23.3465 39.5219 23.3411C39.5177 23.3356 39.5148 23.3307 39.5131 23.3272C39.5115 23.3237 39.5119 23.3235 39.513 23.3279C39.5141 23.3325 39.5163 23.3432 39.5172 23.3614L41.5146 23.2582C41.4499 22.0083 40.4466 21.3609 39.5275 21.3599C39.0751 21.3594 38.5963 21.5077 38.212 21.8394C37.8125 22.1842 37.5691 22.6817 37.541 23.2592L39.5386 23.3565ZM36.0903 55.5231C36.0907 55.5403 36.0905 55.5471 36.0904 55.552C36.0903 55.5558 36.0901 55.5615 36.0896 55.5713C36.0891 55.5821 36.0885 55.5933 36.0875 55.6116L38.0849 55.715C38.0883 55.6486 38.0923 55.5823 38.0897 55.4746L36.0903 55.5231Z" fill="#F44646"/>
</g>
<defs>
<filter id="filter0_d" x="0.740234" y="0.580963" width="77.141" height="79.9379" filterUnits="userSpaceOnUse" color-interpolation-filters="sRGB">
<feFlood flood-opacity="0" result="BackgroundImageFix"/>
<feColorMatrix in="SourceAlpha" type="matrix" values="0 0 0 0 0 0 0 0 0 0 0 0 0 0 0 0 0 0 127 0"/>
<feOffset/>
<feGaussianBlur stdDeviation="10"/>
<feColorMatrix type="matrix" values="0 0 0 0 0.952941 0 0 0 0 0.27451 0 0 0 0 0.27451 0 0 0 1 0"/>
<feBlend mode="normal" in2="BackgroundImageFix" result="effect1_dropShadow"/>
<feBlend mode="normal" in="SourceGraphic" in2="effect1_dropShadow" result="shape"/>
</filter>
</defs>
</svg>
