<svg width="97" height="66" viewBox="0 0 97 66" fill="none" xmlns="http://www.w3.org/2000/svg">
<path d="M87.9377 63.9296L88.5615 63.148L88.4833 63.0856L88.3944 63.04L87.9377 63.9296ZM1.44287 1.13895L1.94721 0.275438L0.852587 1.94614L1.44287 1.13895ZM92.5962 54.5933L92.0707 55.4441L92.1579 55.498L92.2544 55.5331L92.5962 54.5933ZM88.3944 63.04C88.406 63.046 88.3869 63.0362 88.315 62.9906C88.2522 62.9507 88.1676 62.8953 88.0602 62.8233C87.8458 62.6796 87.5545 62.4794 87.1893 62.225C86.4597 61.7166 85.4484 61.0006 84.1945 60.1057C81.6874 58.3164 78.2198 55.8185 74.1162 52.85C65.9096 46.9135 55.1649 39.0994 44.4856 31.3187C33.8064 23.538 23.1933 15.7913 15.2499 9.98967C11.2782 7.08887 7.97401 4.67437 5.66273 2.98508C4.50709 2.14043 3.59968 1.47709 2.98119 1.02491C2.67194 0.798826 2.43493 0.62553 2.27523 0.508759C2.19538 0.450373 2.13485 0.406118 2.0943 0.376462C2.07402 0.361633 2.05873 0.350454 2.04851 0.342983C2.04341 0.339247 2.03957 0.336439 2.037 0.334564C2.03572 0.333627 2.03476 0.332924 2.03412 0.332454C2.03348 0.331986 2.03316 0.331751 1.44287 1.13895C0.852587 1.94614 0.85291 1.94638 0.853554 1.94685C0.854197 1.94732 0.855161 1.94802 0.856445 1.94896C0.859012 1.95084 0.862856 1.95365 0.867969 1.95739C0.878193 1.96487 0.893488 1.97605 0.913774 1.99089C0.954347 2.02055 1.01488 2.06482 1.09475 2.12322C1.25448 2.24001 1.49153 2.41333 1.80081 2.63944C2.41937 3.09167 3.32685 3.75507 4.48257 4.59977C6.79401 6.28917 10.0984 8.70381 14.0703 11.6048C22.014 17.4066 32.6278 25.1539 43.3079 32.9351C53.9877 40.7162 64.7345 48.5319 72.944 54.4705C77.0485 57.4396 80.5202 59.9405 83.0327 61.7336C84.2885 62.6299 85.307 63.351 86.0459 63.8659C86.415 64.1231 86.7176 64.3311 86.9467 64.4846C87.1528 64.6228 87.3521 64.7531 87.481 64.8192L88.3944 63.04ZM1.44287 1.13895C0.938536 2.00245 0.938859 2.00264 0.939503 2.00302C0.940148 2.0034 0.941115 2.00396 0.942402 2.00471C0.944978 2.00622 0.948836 2.00847 0.953968 2.01147C0.964233 2.01746 0.979591 2.02643 0.999966 2.03833C1.04072 2.06214 1.10153 2.09766 1.18179 2.14454C1.34232 2.2383 1.58061 2.37749 1.89171 2.55921C2.51391 2.92266 3.42731 3.45624 4.59211 4.13676C6.92169 5.49778 10.2568 7.44653 14.2791 9.79741C22.3235 14.4992 33.1162 20.8094 44.1093 27.2435C66.106 40.1177 88.8772 53.4714 92.0707 55.4441L93.1217 53.7426C89.9015 51.7534 67.0961 38.3799 45.1195 25.5174C34.126 19.0831 23.3329 12.7726 15.2883 8.07071C11.2659 5.71976 7.93068 3.77095 5.60101 2.40988C4.43617 1.72934 3.52273 1.19573 2.90049 0.832262C2.58937 0.650525 2.35106 0.511322 2.19052 0.417552C2.11025 0.370666 2.04942 0.335139 2.00866 0.311333C1.98828 0.29943 1.97292 0.290457 1.96265 0.284459C1.95752 0.28146 1.95366 0.279206 1.95108 0.2777C1.94979 0.276947 1.94882 0.276382 1.94818 0.276005C1.94753 0.275628 1.94721 0.275438 1.44287 1.13895ZM96.9999 59.6529C96.9999 56.904 95.3297 54.5236 92.938 53.6536L92.2544 55.5331C93.8231 56.1038 94.9999 57.7097 94.9999 59.6529H96.9999ZM90.9621 66C94.352 66 96.9999 63.1013 96.9999 59.6529H94.9999C94.9999 62.1107 93.1368 64 90.9621 64V66ZM87.314 64.7113C88.3229 65.5163 89.5874 66 90.9621 66V64C90.067 64 89.2371 63.6871 88.5615 63.148L87.314 64.7113Z" fill="white"/>
</svg>
