<svg xmlns="http://www.w3.org/2000/svg" width="39" height="39" viewBox="0 0 39 39">
  <metadata><?xpacket begin="﻿" id="W5M0MpCehiHzreSzNTczkc9d"?>
<x:xmpmeta xmlns:x="adobe:ns:meta/" x:xmptk="Adobe XMP Core 5.6-c140 79.160451, 2017/05/06-01:08:21        ">
   <rdf:RDF xmlns:rdf="http://www.w3.org/1999/02/22-rdf-syntax-ns#">
      <rdf:Description rdf:about=""/>
   </rdf:RDF>
</x:xmpmeta>
                                                                                                    
                                                                                                    
                                                                                                    
                                                                                                    
                                                                                                    
                                                                                                    
                                                                                                    
                                                                                                    
                                                                                                    
                                                                                                    
                                                                                                    
                                                                                                    
                                                                                                    
                                                                                                    
                                                                                                    
                                                                                                    
                                                                                                    
                                                                                                    
                                                                                                    
                                                                                                    
                           
<?xpacket end="w"?></metadata>
<defs>
    <style>
      .cls-1 {
        fill: #61bf44;
        fill-rule: evenodd;
      }
    </style>
  </defs>
  <path class="cls-1" d="M1345.5,381a19.5,19.5,0,1,0,19.5,19.5A19.5,19.5,0,0,0,1345.5,381Zm9.27,14.033-1.85,1.852-3.77-3.77-1.43,1.43,3.77,3.77-9.25,9.247-3.77-3.77-1.43,1.431,3.77,3.77-0.92.921-0.02-.018a0.725,0.725,0,0,1-.47.335l-3.51.784a0.727,0.727,0,0,1-.16.018,0.743,0.743,0,0,1-.52-0.215,0.73,0.73,0,0,1-.19-0.676l0.78-3.514a0.717,0.717,0,0,1,.34-0.466l-0.02-.018L1351,391.262a0.56,0.56,0,0,1,.79,0l2.98,2.979A0.557,0.557,0,0,1,1354.77,395.033Z" transform="translate(-1326 -381)"/>
</svg>
