<svg width="30" height="30" viewBox="0 0 30 30" fill="none" xmlns="http://www.w3.org/2000/svg">
<path d="M27.9588 6.80412C27.8351 6.61855 27.5876 6.49484 27.4021 6.49484C22.3299 6.92783 18.3093 10.8247 17.3814 11.6907H12.6186C11.6907 10.7629 7.6701 6.92783 2.59794 6.49484C2.35052 6.49484 2.10309 6.61855 2.04124 6.80412C1.97938 6.92783 0 10.268 0 14.9072V15.0133C0 14.9845 0 15.0387 0 15.0928C0 19.732 1.91753 23.0722 2.04124 23.1959C2.16495 23.3814 2.35052 23.5051 2.59794 23.5051H2.65979C7.85567 23.0722 11.9381 18.9897 12.7423 18.2474H17.3814C18.0619 18.9897 22.1443 23.0103 27.3402 23.5051H27.4021C27.5876 23.5051 27.8351 23.3814 27.9588 23.1959C28.0206 23.0722 30 19.732 30 15.0928V14.9691V14.9072C30 10.268 28.0825 6.92783 27.9588 6.80412ZM11.7526 14.3505H9.89691C9.52577 14.3505 9.27835 14.5979 9.27835 14.9691C9.27835 15.3402 9.52577 15.5876 9.89691 15.5876H11.7526V17.3814C10.9485 18.1856 7.36082 21.6495 2.90722 22.2062C2.41237 21.2783 1.23711 18.5567 1.23711 15.0309C1.23711 15.0309 1.23711 15.0309 1.23711 14.9691C1.23711 11.3814 2.41237 8.65979 2.90722 7.73196C7.29897 8.28866 10.9485 11.7526 11.7526 12.5567V14.3505ZM17.0103 16.9484H12.9278V12.866H17.0103V16.9484ZM28.701 14.9072C28.701 14.9691 28.701 14.9691 28.701 15.0309V15.0928C28.701 18.6186 27.5258 21.3402 27.0309 22.268C22.6392 21.7113 18.9897 18.2474 18.1856 17.4433V15.5876H20.0412C20.4124 15.5876 20.6598 15.3402 20.6598 14.9691C20.6598 14.5979 20.4124 14.3505 20.0412 14.3505H18.1856V12.5567C18.9897 11.7526 22.6392 8.28866 27.0309 7.73196C27.5258 8.65979 28.7629 11.3814 28.701 14.9072Z" fill="white"/>
</svg>
