<svg width="30" height="30" viewBox="0 0 30 30" fill="none" xmlns="http://www.w3.org/2000/svg">
<path d="M29.5 14H27.2654L25.5 6.93848V0.5C25.5 0.223877 25.2761 0 25 0H20C19.7239 0 19.5 0.223877 19.5 0.5V8.25C19.4263 10.6641 17.4143 12.5642 15 12.5C12.5857 12.5642 10.5737 10.6641 10.5 8.25V0.5C10.5 0.223877 10.2761 0 10 0H5C4.72388 0 4.5 0.223877 4.5 0.5V6.93848L2.73462 14H0.5C0.223877 14 0 14.2239 0 14.5V19.5C0 19.7761 0.223877 20 0.5 20H2.5V21.5H0.5C0.223877 21.5 0 21.7239 0 22V27C0 27.2761 0.223877 27.5 0.5 27.5H2.5V29.5C2.5 29.7761 2.72388 30 3 30H27C27.2761 30 27.5 29.7761 27.5 29.5V27.5H29.5C29.7761 27.5 30 27.2761 30 27V22C30 21.7239 29.7761 21.5 29.5 21.5H27.5V20H29.5C29.7761 20 30 19.7761 30 19.5V14.5C30 14.2239 29.7761 14 29.5 14ZM20.5 1H24.5V5H20.5V1ZM5.5 1H9.5V5H5.5V1ZM5.48511 7.12109C5.49512 7.08154 5.5 7.04077 5.5 7V6H9.5V8.25C9.57397 11.2163 12.0334 13.564 15 13.5C17.9666 13.564 20.426 11.2163 20.5 8.25V6H24.5V7C24.5 7.04077 24.5049 7.08154 24.5149 7.12109C25.4022 10.6703 25.3344 10.3991 26.2346 14H19.5C19.2239 14 19 14.2239 19 14.5H11C11 14.2239 10.7761 14 10.5 14H3.76538C4.28862 11.907 4.78363 9.927 5.48511 7.12109ZM11 15.5H19V18.5H11C11 15.3554 11 18.133 11 15.5ZM1 15H10V19H1C1 15.43 1 19.1235 1 15ZM1 22.5H10V26.5H1C1 22.93 1 26.6235 1 22.5ZM19 26H11C11 22.8973 11 25.6192 11 23H19V26ZM26.5 29H3.5V27.5H10.5C10.7761 27.5 11 27.2761 11 27H19C19 27.2761 19.2239 27.5 19.5 27.5H26.5V29ZM29 26.5H20C20 22.3656 20 26.0798 20 22.5H29V26.5ZM26.5 21.5H19.5C19.2239 21.5 19 21.7239 19 22H11C11 21.7239 10.7761 21.5 10.5 21.5H3.5V20H10.5C10.7761 20 11 19.7761 11 19.5H19C19 19.7761 19.2239 20 19.5 20H26.5V21.5ZM29 19H20C20 14.9067 20 18.5598 20 15H29V19Z" fill="white"/>
</svg>
