<svg xmlns="http://www.w3.org/2000/svg" width="26" height="26" viewBox="0 0 26 26"><g><g><path fill="#fff" d="M23.113 6.186v9.202a.5.5 0 0 1-.5.5h-17.2a.5.5 0 0 1-.5-.5V8.263h-.5v.775a.5.5 0 0 1-.5.5h-3.2a.5.5 0 0 1-.5-.5V.688a.5.5 0 0 1 .5-.5h3.2a.5.5 0 0 1 .5.5v.5h7.758c1.025 0 2.045.256 2.948.74l7.003 3.758h.49a.5.5 0 0 1 .5.5zm-19.7-4.999h-2.2v7.35h2.2zm17.559 5.5c.167.544.597.974 1.14 1.14V6.686h-.074a.51.51 0 0 1-.038.002zM8.912 8.055l4.528 1.888a.59.59 0 0 0 .53-1.053l-2.028-1.205a1.075 1.075 0 0 1 .549-1.996h1.046l.032-.002h6.438l-5.36-2.877a5.252 5.252 0 0 0-2.476-.621H4.412v5.075h.543c1.365 0 2.696.266 3.957.791zm3.99 3.47a.5.5 0 0 1 .706.052.507.507 0 0 0 .382.163c.253 0 .466-.172.466-.377 0-.204-.213-.376-.466-.376a.5.5 0 0 1-.102-.01 1.575 1.575 0 0 1-.833-.11l-1.506-.629a2.503 2.503 0 0 0 2.438 3.054c1.378 0 2.5-1.122 2.5-2.5 0-1.026-.622-1.91-1.508-2.294a1.59 1.59 0 0 1-.022 1.832c.306.252.5.622.5 1.033 0 .595-.404 1.103-.968 1.295a.5.5 0 0 1-.998 0 1.463 1.463 0 0 1-.64-.428.5.5 0 0 1 .052-.705zm-5.848 3.364a1.723 1.723 0 0 0-1.141-1.14v1.14zm15.058-1.14a1.723 1.723 0 0 0-1.14 1.14h1.14zm0-4.893a2.722 2.722 0 0 1-2.168-2.167H12.49a.074.074 0 0 0-.037.136l.887.528a3.504 3.504 0 0 1 4.147 3.439c0 1.93-1.57 3.5-3.5 3.5a3.504 3.504 0 0 1-3.371-4.443l-2.09-.87a9.232 9.232 0 0 0-2.613-.666v4.408a2.722 2.722 0 0 1 2.168 2.168h11.863a2.722 2.722 0 0 1 2.169-2.168zM2.817 7.27a.5.5 0 0 1-.5.5h-.007a.5.5 0 0 1 0-1h.007a.5.5 0 0 1 .5.5zm22.996 9.666v8.35a.5.5 0 0 1-.5.5h-3.2a.5.5 0 0 1-.5-.5v-1.36L11.56 25.578a4.01 4.01 0 0 1-2.635-.476L3.86 22.202a1.913 1.913 0 0 1-.766-2.494 1.894 1.894 0 0 1 1.117-.974 1.893 1.893 0 0 1 1.477.119l4.213 2.19c.126.065.267.1.408.102a1.73 1.73 0 0 1-.025-1.26c.162-.443.488-.795.919-.99l3.36-1.525a6.345 6.345 0 0 1 4.692-.226l2.358.807v-1.013a.5.5 0 0 1 .5-.5h3.2a.5.5 0 0 1 .5.5zm-4.2 2.07l-2.682-.917a5.349 5.349 0 0 0-3.956.19l-3.36 1.525a.74.74 0 0 0-.391.423.746.746 0 0 0 .939.961l3.357-1.136a.5.5 0 0 1 .32.948l-3.357 1.136a1.741 1.741 0 0 1-1.095.006.508.508 0 0 1-.05.003H10.32c-.306 0-.61-.075-.881-.216l-4.213-2.19a.9.9 0 0 0-.703-.056.91.91 0 0 0-.167 1.65l5.065 2.902a3.005 3.005 0 0 0 1.976.356l10.215-1.679zm3.2-1.57h-2.2v7.35h2.2zm-.596 1.267a.5.5 0 0 1-.5.5h-.007a.5.5 0 0 1 0-1h.007a.5.5 0 0 1 .5.5zm-14.371-7.91a.5.5 0 0 1-.5.5H8.288a.5.5 0 1 1 0-1h1.057a.5.5 0 0 1 .5.5zm10.342 0a.5.5 0 0 1-.5.5H18.63a.5.5 0 1 1 0-1h1.057a.5.5 0 0 1 .5.5zm-8.09-7.107a.5.5 0 0 1-.5.5H7.892a.5.5 0 0 1 0-1h3.707a.5.5 0 0 1 .5.5zm-5.468 0a.502.502 0 0 1-.5.5.504.504 0 0 1-.5-.5.504.504 0 0 1 .5-.5.503.503 0 0 1 .5.5z"/></g></g></svg>