<svg xmlns="http://www.w3.org/2000/svg" width="26" height="26" viewBox="0 0 26 26"><g><g><path fill="#fff" d="M15.312 13.5a.5.5 0 0 1-.5.5H9.316a.5.5 0 0 1 0-1h5.496a.5.5 0 0 1 .5.5zm1.871 0a.503.503 0 0 1-.5.5.504.504 0 0 1-.5-.5.504.504 0 0 1 .5-.5.504.504 0 0 1 .5.5zm-5.833 1.8a.503.503 0 0 1-.5.5.504.504 0 0 1-.5-.5.504.504 0 0 1 .5-.5.504.504 0 0 1 .5.5zm4.3 0a.5.5 0 0 1-.5.5h-2.662a.5.5 0 0 1 0-1h2.662a.5.5 0 0 1 .5.5zM25.8 13v12.3a.5.5 0 0 1-.5.5H.7a.5.5 0 0 1-.5-.5V13a.5.5 0 0 1 .146-.354L5.5 7.492V4.597a.5.5 0 0 1 .5-.5h2.895L12.646.345a.5.5 0 0 1 .707 0l3.752 3.752H20a.5.5 0 0 1 .5.5v2.896l5.154 5.153a.5.5 0 0 1 .146.353zm-5.3-5.457c.012.005.01-.004 0-.02zm0 7.39l3.955-2.071L20.5 8.906zM10.31 4.096h5.38L13 1.406zM6.5 15.459l4.662 2.443 1.572-1.022a.5.5 0 0 1 .545 0l1.56 1.016 4.661-2.44V5.096h-13zm-4.955-2.597L5.5 14.935V8.906zM1.2 24.379l9-5.852-4.437-2.325-.002-.001L1.2 13.81zm22.415.421l-10.609-6.904L2.386 24.8zM24.8 13.81l-4.561 2.388h-.002l-4.436 2.324 8.999 5.856zM11.15 7.799a.5.5 0 0 1-.5.5h-.634v3.098a.5.5 0 0 1-1 0V8.3h-.634a.5.5 0 0 1 0-1h2.268a.5.5 0 0 1 .5.5zm3.562 4.059a.498.498 0 0 1-.655-.265L13.804 11h-1.61l-.251.593a.5.5 0 0 1-.92-.39L12.54 7.63a.5.5 0 0 1 .92 0l1.517 3.571a.5.5 0 0 1-.265.656zM13.38 10L13 9.105l-.38.895zm5.067 1.132a.5.5 0 0 1-.844.535l-.72-1.134-.72 1.134a.5.5 0 1 1-.844-.535l.972-1.533-.972-1.533a.5.5 0 0 1 .845-.535l.72 1.134.719-1.134a.5.5 0 0 1 .844.535L17.475 9.6z"/></g></g></svg>