<svg width="66" height="70" viewBox="0 0 66 70" fill="none" xmlns="http://www.w3.org/2000/svg">
<g filter="url(#filter0_d)">
<path fill-rule="evenodd" clip-rule="evenodd" d="M39.09 32C38.9586 31.9877 38.826 32.0014 38.6999 32.0406C38.5738 32.0797 38.4568 32.1434 38.3554 32.228C38.2541 32.3126 38.1705 32.4164 38.1095 32.5335C38.0485 32.6505 38.0113 32.7785 38 32.91L37.09 43H28.92L28.1 34H36C36.2652 34 36.5196 33.8947 36.7071 33.7071C36.8946 33.5196 37 33.2652 37 33C37 32.7348 36.8946 32.4805 36.7071 32.2929C36.5196 32.1054 36.2652 32 36 32H26.91C26.7785 32.0113 26.6505 32.0486 26.5334 32.1096C26.4164 32.1706 26.3126 32.2542 26.228 32.3555C26.1434 32.4568 26.0797 32.5739 26.0405 32.7C26.0014 32.826 25.9876 32.9586 26 33.0901L27 44.0901C27.0225 44.3394 27.1378 44.5712 27.3229 44.7396C27.5081 44.9081 27.7497 45.001 28 45H38C38.2503 45.001 38.4919 44.9081 38.6771 44.7396C38.8622 44.5712 38.9775 44.3394 39 44.0901L40 33.0901C40.0124 32.9586 39.9986 32.826 39.9595 32.7C39.9203 32.5739 39.8566 32.4568 39.772 32.3555C39.6874 32.2542 39.5836 32.1706 39.4666 32.1096C39.3495 32.0486 39.2215 32.0113 39.09 32ZM40 27H36.62L35.9 25.55C35.8161 25.3836 35.6874 25.2439 35.5284 25.1467C35.3694 25.0495 35.1864 24.9987 35 25H31C30.8153 25.0006 30.6344 25.0523 30.4773 25.1494C30.3202 25.2465 30.1931 25.3851 30.11 25.55L29.39 27H26C25.7348 27 25.4804 27.1054 25.2929 27.2929C25.1054 27.4805 25 27.7348 25 28V30C25 30.2652 25.1054 30.5196 25.2929 30.7071C25.4804 30.8947 25.7348 31 26 31C26.2652 31 26.5196 30.8947 26.7071 30.7071C26.8946 30.5196 27 30.2652 27 30V29H30C30.1864 29.0013 30.3694 28.9505 30.5284 28.8534C30.6874 28.7562 30.8161 28.6165 30.9 28.45L31.62 27H34.38L35.1 28.45C35.1839 28.6165 35.3126 28.7562 35.4716 28.8534C35.6306 28.9505 35.8136 29.0013 36 29H39V30C39 30.2652 39.1054 30.5196 39.2929 30.7071C39.4804 30.8947 39.7348 31 40 31C40.2652 31 40.5196 30.8947 40.7071 30.7071C40.8946 30.5196 41 30.2652 41 30V28C41 27.7348 40.8946 27.4805 40.7071 27.2929C40.5196 27.1054 40.2652 27 40 27Z" fill="#F23C3C"/>
</g>
<defs>
<filter id="filter0_d" x="0" y="0" width="66" height="70" filterUnits="userSpaceOnUse" color-interpolation-filters="sRGB">
<feFlood flood-opacity="0" result="BackgroundImageFix"/>
<feColorMatrix in="SourceAlpha" type="matrix" values="0 0 0 0 0 0 0 0 0 0 0 0 0 0 0 0 0 0 127 0"/>
<feOffset/>
<feGaussianBlur stdDeviation="12.5"/>
<feColorMatrix type="matrix" values="0 0 0 0 0.94902 0 0 0 0 0.235294 0 0 0 0 0.235294 0 0 0 1 0"/>
<feBlend mode="normal" in2="BackgroundImageFix" result="effect1_dropShadow"/>
<feBlend mode="normal" in="SourceGraphic" in2="effect1_dropShadow" result="shape"/>
</filter>
</defs>
</svg>
