<svg width="16" height="16" viewBox="0 0 16 16"  fill="#4D4C4C" xmlns="http://www.w3.org/2000/svg">
<path d="M7.57823 5.89546C7.80155 5.89546 8.0157 5.80678 8.17361 5.64887C8.33152 5.49096 8.42025 5.27675 8.42025 5.05343C8.42025 4.83011 8.33152 4.6159 8.17361 4.45799C8.0157 4.30008 7.80155 4.21141 7.57823 4.21141C6.74554 4.21141 5.93158 4.45833 5.23923 4.92094C4.54688 5.38356 4.00725 6.04106 3.6886 6.81035C3.36995 7.57965 3.28656 8.4262 3.449 9.24289C3.61145 10.0596 4.01244 10.8097 4.60124 11.3985C5.19003 11.9873 5.94018 12.3883 6.75686 12.5507C7.57355 12.7132 8.42005 12.6298 9.18935 12.3112C9.95864 11.9925 10.6162 11.4529 11.0788 10.7605C11.5414 10.0682 11.7883 9.25421 11.7883 8.42152C11.7883 8.19821 11.6996 7.98399 11.5417 7.82609C11.3838 7.66818 11.1696 7.5795 10.9463 7.5795C10.723 7.5795 10.5088 7.66818 10.3509 7.82609C10.193 7.98399 10.1043 8.19821 10.1043 8.42152C10.1043 8.92113 9.95612 9.40955 9.67856 9.82496C9.40099 10.2404 9.00651 10.5641 8.54493 10.7553C8.08335 10.9465 7.57543 10.9965 7.08542 10.8991C6.59541 10.8016 6.14529 10.561 5.79201 10.2077C5.43873 9.85446 5.19814 9.40439 5.10067 8.91438C5.0032 8.42437 5.05323 7.9164 5.24442 7.45482C5.43561 6.99324 5.75943 6.59876 6.17484 6.3212C6.59025 6.04363 7.07862 5.89546 7.57823 5.89546ZM14.3144 7.5795C14.0911 7.5795 13.8769 7.66818 13.719 7.82609C13.5611 7.98399 13.4724 8.19821 13.4724 8.42152C13.4724 9.58728 13.1267 10.7269 12.4791 11.6962C11.8314 12.6655 10.9108 13.4209 9.83381 13.867C8.7568 14.3131 7.57166 14.4298 6.42831 14.2024C5.28495 13.975 4.23472 13.4136 3.41041 12.5893C2.5861 11.765 2.02476 10.7147 1.79734 9.57139C1.56991 8.42804 1.68661 7.2429 2.13273 6.16589C2.57884 5.08887 3.33433 4.16835 4.30362 3.52069C5.27291 2.87303 6.41247 2.52737 7.57823 2.52737C7.80155 2.52737 8.0157 2.43869 8.17361 2.28078C8.33152 2.12287 8.42025 1.90866 8.42025 1.68534C8.42025 1.46202 8.33152 1.24781 8.17361 1.0899C8.0157 0.931993 7.80155 0.84332 7.57823 0.84332C6.0794 0.84332 4.61424 1.28773 3.36801 2.12044C2.12178 2.95314 1.15043 4.13678 0.576856 5.52152C0.00327992 6.90626 -0.146789 8.42997 0.145618 9.9C0.438024 11.37 1.1598 12.7203 2.21963 13.7802C3.27946 14.84 4.62978 15.5617 6.0998 15.8541C7.56983 16.1465 9.09355 15.9965 10.4783 15.4229C11.863 14.8493 13.0466 13.878 13.8793 12.6317C14.712 11.3855 15.1564 9.92035 15.1564 8.42152C15.1564 8.19821 15.0677 7.98399 14.9098 7.82609C14.7519 7.66818 14.5377 7.5795 14.3144 7.5795ZM15.5269 2.61998L14.0955 1.90428L13.3798 0.472879C13.3201 0.353771 13.2329 0.250496 13.1255 0.171613C13.0182 0.092731 12.8936 0.0404499 12.7621 0.019079C12.6306 -0.00229185 12.4959 0.00785767 12.369 0.0486814C12.2422 0.0895051 12.1269 0.159872 12.0325 0.253945L9.50644 2.78001C9.4284 2.85869 9.36667 2.95196 9.32477 3.05455C9.28286 3.15714 9.26163 3.267 9.26227 3.37782V5.55863L6.98037 7.84058C6.84243 8.00166 6.77037 8.20879 6.77855 8.4207C6.78674 8.63262 6.87456 8.8337 7.02452 8.98366C7.17448 9.13362 7.37551 9.22144 7.58743 9.22963C7.79934 9.23781 8.00657 9.1657 8.16765 9.02776L10.4495 6.74591H12.6304C12.7412 6.74655 12.851 6.72532 12.9536 6.68341C13.0562 6.64151 13.1495 6.57973 13.2282 6.50169L15.7543 3.97562C15.8484 3.88127 15.9187 3.76593 15.9595 3.6391C16.0003 3.51227 16.0105 3.37756 15.9891 3.24604C15.9677 3.11453 15.9154 2.98997 15.8366 2.88259C15.7577 2.77522 15.6545 2.68812 15.5354 2.6284L15.5269 2.61998ZM12.2767 5.05343H10.9463V3.71465L12.403 2.25796L12.723 2.89781C12.8046 3.062 12.9377 3.19511 13.1019 3.27678L13.7418 3.59675L12.2767 5.05343Z"/>
</svg>
