<svg width="19" height="19" viewBox="0 0 19 19" fill="none" xmlns="http://www.w3.org/2000/svg">
<g clip-path="url(#clip0)">
<path d="M9.7686 0.500654C9.73765 0.1948 9.46442 -0.028079 9.15875 0.00287017C8.8529 0.0338193 8.63002 0.30687 8.66097 0.612724C9.15125 5.45764 9.20335 5.41404 9.03039 5.94054C8.81052 6.60962 8.27232 7.11453 7.5907 7.29125C7.33884 7.35656 7.1658 7.58764 7.17404 7.84774L7.47058 17.1892C7.46649 17.5745 7.15177 17.8867 6.76554 17.8867C6.37927 17.8867 6.06455 17.5745 6.0605 17.1892L6.35704 7.84774C6.36532 7.58764 6.19228 7.35656 5.94038 7.29125C4.99907 7.04722 4.30835 6.16287 4.41645 5.09568L4.87015 0.612687C4.9011 0.306832 4.67826 0.0337822 4.3724 0.00283307C4.0661 -0.0278563 3.79346 0.194762 3.76251 0.500617L3.30889 4.98361C3.16082 6.44657 4.00112 7.7117 5.23133 8.22455L4.94756 17.164C4.9185 18.1081 5.71242 19 6.76561 19C7.81454 19 8.61287 18.1125 8.58367 17.164L8.29989 8.22455C9.52825 7.71244 10.3706 6.44894 10.2223 4.98364L9.7686 0.500654Z" fill="white"/>
<path d="M6.76562 5.26959C7.07304 5.26959 7.32227 5.02037 7.32227 4.71295V0.556702C7.32227 0.249288 7.07304 6.10352e-05 6.76562 6.10352e-05C6.45821 6.10352e-05 6.20898 0.249288 6.20898 0.556702V4.71295C6.20898 5.02037 6.45821 5.26959 6.76562 5.26959Z" fill="white"/>
<path d="M15.1523 6.10352e-05C13.0038 6.10352e-05 11.2559 1.74802 11.2559 3.89654V12.5059C11.2559 12.8133 11.5051 13.0625 11.8125 13.0625H12.3691V17.3301C12.3691 18.2509 13.1183 19 14.0391 19C14.9599 19 15.709 18.2509 15.709 17.3301V0.556701C15.709 0.249287 15.4598 6.10352e-05 15.1523 6.10352e-05ZM14.5957 17.3301C14.5957 17.637 14.346 17.8867 14.0391 17.8867C13.7321 17.8867 13.4824 17.637 13.4824 17.3301V13.0625H14.5957V17.3301ZM14.5957 11.9493C14.3399 11.9493 12.6091 11.9493 12.3691 11.9493V3.89654C12.3691 2.55248 13.3269 1.42788 14.5957 1.16926V11.9493Z" fill="white"/>
</g>
<defs>
<clipPath id="clip0">
<rect width="19" height="19" fill="white"/>
</clipPath>
</defs>
</svg>
