<svg width="30" height="30" viewBox="0 0 30 30" fill="none" xmlns="http://www.w3.org/2000/svg">
<g clip-path="url(#clip0)">
<path d="M21.3355 9.70257C19.1165 9.86163 16.8198 10.7282 14.3142 10.5614C12.4452 10.4348 10.5186 9.83593 8.77571 9.70257C7.59199 9.61238 5.78803 9.70257 4.87539 9.78065C3.15047 9.92855 0.533281 10.2127 0.117207 11.4197C-0.371122 12.8382 0.795146 13.3192 1.05362 13.9157C1.4275 14.7823 1.3858 15.6779 1.67724 16.4112C1.94881 17.0891 2.30232 17.8335 2.76931 18.4411C4.45058 20.6286 9.25338 20.8435 11.4278 19.0652C12.1155 18.5017 12.8317 17.317 13.2997 16.257C13.6289 15.5111 13.9985 13.2925 15.0154 13.2925C15.7956 13.2925 15.9018 13.9899 16.1079 14.6969C16.6821 16.6653 17.6384 18.4954 18.9938 19.377C21.1154 20.7591 24.8736 20.6577 26.5607 19.2209C27.5771 18.3562 28.272 16.834 28.6677 15.5543C28.8234 15.0466 28.7676 14.4011 28.9805 13.9162C29.2982 13.1883 30.0682 13.0549 29.995 11.8867C29.8544 9.68172 24.0919 9.50521 21.3355 9.70257ZM10.8047 18.1278C9.28199 19.3993 6.06445 19.5991 4.40839 18.4411C3.41573 17.7447 1.60208 14.2173 2.7698 12.0438C3.18442 11.2713 3.93122 11.0754 5.03202 10.9513C7.88004 10.6317 12.2042 11.0585 12.8332 13.0578C13.4282 14.952 11.7387 17.3466 10.8047 18.1278ZM27.4981 14.4612C27.3662 15.9796 26.5481 17.963 25.4691 18.5163C23.1051 19.733 19.872 19.1384 18.4477 17.2695C17.7174 16.3098 16.7665 14.452 17.2 13.0564C17.6524 11.5967 19.7968 11.121 21.8796 10.9498C25.552 10.6501 27.822 10.7505 27.4981 14.4612ZM25.1772 11.4978C25.1253 11.3843 24.989 11.3349 24.8755 11.3872C24.7626 11.4391 24.7126 11.5759 24.7645 11.6894L26.2222 14.8172C26.2741 14.9307 26.4104 14.9801 26.5229 14.9282C26.6363 14.8754 26.6868 14.7401 26.6339 14.6266L25.1772 11.4978ZM24.4197 12.2548C24.3678 12.1413 24.2316 12.0909 24.1181 12.1437C24.0056 12.1966 23.9551 12.3319 24.0075 12.4454L25.0099 14.8177C25.0618 14.9311 25.198 14.9806 25.3115 14.9287C25.424 14.8759 25.4744 14.7406 25.4216 14.6271L24.4197 12.2548Z" fill="white"/>
</g>
<defs>
<clipPath id="clip0">
<rect width="30" height="30" fill="white"/>
</clipPath>
</defs>
</svg>
