<svg xmlns="http://www.w3.org/2000/svg" width="35" height="27" viewBox="0 0 35 27"><g><g><path fill="#fff" d="M18.357 16.07c4.141 1.857 7.14 5.712 7.71 10.282h-2.855c-.714-4.855-4.998-8.568-9.996-8.568s-9.282 3.713-9.996 8.568H.364c.571-4.57 3.57-8.425 7.711-10.282-2.142-1.57-3.427-4.14-3.427-6.854 0-4.712 3.856-8.568 8.568-8.568s8.568 3.856 8.568 8.568c0 2.713-1.285 5.284-3.427 6.854zm-5.141-1.142c3.142 0 5.712-2.57 5.712-5.712s-2.57-5.712-5.712-5.712-5.712 2.57-5.712 5.712 2.57 5.712 5.712 5.712zm16.708.857c2.856 1.428 4.712 4.427 4.712 7.568H31.78c0-2.713-2-4.998-4.57-5.57-.714-.142-1.142-.713-1.142-1.427 0-.429.143-.857.571-1.142 1.285-1 2.285-2.714 2.285-4.57 0-2.713-1.856-5.14-5.14-5.712-.144-.428-.286-.857-.572-1.285-.286-.571-.571-1.143-1-1.571 4.998-.571 9.568 3.427 9.568 8.568 0 1.856-.714 3.713-1.856 5.14z"/></g></g></svg>