<svg xmlns="http://www.w3.org/2000/svg" width="55" height="55" viewBox="0 0 55 55"><defs><linearGradient id="f8yqa" x1="45" x2="10" y1="55" y2="0" gradientUnits="userSpaceOnUse"><stop offset="0" stop-color="#dd3753"/><stop offset="1" stop-color="#8d2d4e"/></linearGradient></defs><g><g><path fill="#010000" d="M10 0h35c5.523 0 10 4.477 10 10v35c0 5.523-4.477 10-10 10H10C4.477 55 0 50.523 0 45V10C0 4.477 4.477 0 10 0z"/><path fill="url(#f8yqa)" d="M10 0h35c5.523 0 10 4.477 10 10v35c0 5.523-4.477 10-10 10H10C4.477 55 0 50.523 0 45V10C0 4.477 4.477 0 10 0z"/></g><g><path fill="#fff" d="M39.447 24.582a7.01 7.01 0 0 1-.553 2.733h-5.15l-1.163-2.327c-.229-.457-.978-.457-1.207 0l-2.096 4.192-.747-1.492c-.23-.457-.978-.457-1.207 0l-.746 1.492-2.096-4.192c-.23-.457-.979-.457-1.209 0l-1.163 2.327h-5.15a7.01 7.01 0 0 1-.552-2.733c0-3.727 2.656-6.537 6.12-6.537 2.73 0 4.481 1.89 5.4 3.593.918-1.703 2.67-3.593 5.4-3.593 3.463 0 6.12 2.81 6.12 6.537zm-1.261 4.083c-1.39 2.186-3.891 4.262-7.021 6.904a271.63 271.63 0 0 0-2.795 2.381.673.673 0 0 1-.885 0c-.981-.85-1.916-1.64-2.795-2.381-3.13-2.642-5.632-4.718-7.021-6.904h4.859a.675.675 0 0 0 .603-.373l.747-1.492 2.096 4.192c.23.457.978.457 1.207 0l.746-1.493.747 1.493a.675.675 0 0 0 1.207 0l2.097-4.192.746 1.492a.675.675 0 0 0 .604.373z"/></g></g></svg>