<svg xmlns="http://www.w3.org/2000/svg" width="55" height="55" viewBox="0 0 55 55"><defs><linearGradient id="h320a" x1="45" x2="10" y1="55" y2="0" gradientUnits="userSpaceOnUse"><stop offset="0" stop-color="#afafaf"/><stop offset="1" stop-color="#e7e7e7"/></linearGradient></defs><g><g><path fill="#010000" d="M10 0h35c5.523 0 10 4.477 10 10v35c0 5.523-4.477 10-10 10H10C4.477 55 0 50.523 0 45V10C0 4.477 4.477 0 10 0z"/><path fill="url(#h320a)" d="M10 0h35c5.523 0 10 4.477 10 10v35c0 5.523-4.477 10-10 10H10C4.477 55 0 50.523 0 45V10C0 4.477 4.477 0 10 0z"/></g><g><path d="M37.668 24.11v9.49a2.61 2.61 0 0 1-.795 1.918c-.53.53-1.168.794-1.916.794H20.044a2.612 2.612 0 0 1-1.918-.794 2.613 2.613 0 0 1-.794-1.917v-9.49c0-.749.265-1.388.794-1.917a2.613 2.613 0 0 1 1.918-.795h2.372l.54-1.44c.135-.346.38-.644.736-.895.357-.25.722-.376 1.097-.376h5.422c.375 0 .74.125 1.097.376.357.25.602.549.736.895l.54 1.44h2.373c.748 0 1.387.265 1.916.795.53.53.795 1.168.795 1.917zm-5.423 4.746c0-1.306-.464-2.424-1.393-3.352-.928-.929-2.046-1.393-3.352-1.393s-2.424.464-3.352 1.393c-.928.928-1.393 2.046-1.393 3.352s.464 2.424 1.393 3.352c.929.929 2.046 1.393 3.352 1.393s2.424-.464 3.352-1.393c.929-.928 1.393-2.046 1.393-3.352zm-2.59-2.155c.597.596.896 1.315.896 2.155 0 .84-.299 1.559-.896 2.155a2.938 2.938 0 0 1-2.155.895c-.84 0-1.559-.298-2.155-.895a2.937 2.937 0 0 1-.895-2.155c0-.84.298-1.559.895-2.155a2.938 2.938 0 0 1 2.155-.896c.84 0 1.559.299 2.155.896z"/></g></g></svg>