<svg xmlns="http://www.w3.org/2000/svg" width="35" height="35" viewBox="0 0 35 35"><defs><linearGradient id="5033a" x1="35" x2="0" y1="24" y2="11" gradientUnits="userSpaceOnUse"><stop offset="0" stop-color="#1b48c7"/><stop offset="1" stop-color="#3a63d7"/></linearGradient></defs><g><g><path fill="#fff" d="M17.5 0C27.165 0 35 7.835 35 17.5S27.165 35 17.5 35 0 27.165 0 17.5 7.835 0 17.5 0z"/><path fill="url(#5033a)" d="M17.5 0C27.165 0 35 7.835 35 17.5S27.165 35 17.5 35 0 27.165 0 17.5 7.835 0 17.5 0z"/></g><g><path fill="#fff" d="M13 14.4l1.186 2.263 2.413.487-1.68 1.886.306 2.564L13 20.503 10.775 21.6l.305-2.564L9.4 17.15l2.414-.487L13 14.4m10 0l1.186 2.263 2.414.487-1.68 1.886.305 2.564L23 20.503 20.775 21.6l.305-2.564-1.68-1.886 2.413-.487L23 14.4"/></g></g></svg>