<svg xmlns="http://www.w3.org/2000/svg" width="55" height="55" viewBox="0 0 55 55"><defs><mask id="jw8cb" width="2" height="2" x="-1" y="-1"><path fill="#fff" d="M13 21h30v13H13z"/><path d="M26.557 26.146l.7 1.889H25.87zm15.995 6.185c0 .922-.746 1.669-1.666 1.669H15.115a1.665 1.665 0 0 1-1.606-2.114l2.67-9.662c.2-.723.857-1.224 1.606-1.224h20.43c.748 0 1.405.5 1.605 1.224l2.651 9.593c.052.162.08.335.08.514zm-18.621-6.6c.21 0 .38-.171.38-.382v-.23a.38.38 0 0 0-.38-.38h-3.634a.38.38 0 0 0-.38.38v.23c0 .21.17.381.38.381h1.235v4.15c0 .211.17.381.38.381h.408c.21 0 .38-.17.38-.38v-4.15zm5.24 4.008l-1.902-4.761a.38.38 0 0 0-.353-.24h-.692a.38.38 0 0 0-.354.243l-1.85 4.761a.382.382 0 0 0 .354.52h.418c.16 0 .302-.1.357-.251l.358-.988h2.128l.381.994a.38.38 0 0 0 .356.244h.447a.38.38 0 0 0 .353-.522zm4.92-.07l-1.49-2.248 1.34-2.096a.381.381 0 0 0-.32-.587h-.448a.379.379 0 0 0-.324.183l-.94 1.538-.96-1.541a.38.38 0 0 0-.322-.18h-.458a.38.38 0 0 0-.32.588l1.329 2.055-1.498 2.29a.382.382 0 0 0 .319.59h.49a.38.38 0 0 0 .32-.174l1.078-1.682 1.076 1.681c.07.11.19.175.32.175h.492a.38.38 0 0 0 .316-.591zm1.993-4.55a.38.38 0 0 0-.38-.38h-.408a.38.38 0 0 0-.38.38v4.762c0 .21.17.38.38.38h.408c.21 0 .38-.17.38-.38z"/></mask><filter id="jw8ca" width="70" height="53" x="-7" y="1" filterUnits="userSpaceOnUse"><feOffset in="SourceGraphic" result="FeOffset1353Out"/><feGaussianBlur in="FeOffset1353Out" result="FeGaussianBlur1354Out" stdDeviation="4 4"/></filter></defs><g><g><path fill="#111" d="M10 0h35c5.523 0 10 4.477 10 10v35c0 5.523-4.477 10-10 10H10C4.477 55 0 50.523 0 45V10C0 4.477 4.477 0 10 0z"/></g><g><g filter="url(#jw8ca)"><path fill="none" d="M26.557 26.146l.7 1.889H25.87zm15.995 6.185c0 .922-.746 1.669-1.666 1.669H15.115a1.665 1.665 0 0 1-1.606-2.114l2.67-9.662c.2-.723.857-1.224 1.606-1.224h20.43c.748 0 1.405.5 1.605 1.224l2.651 9.593c.052.162.08.335.08.514zm-18.621-6.6c.21 0 .38-.171.38-.382v-.23a.38.38 0 0 0-.38-.38h-3.634a.38.38 0 0 0-.38.38v.23c0 .21.17.381.38.381h1.235v4.15c0 .211.17.381.38.381h.408c.21 0 .38-.17.38-.38v-4.15zm5.24 4.008l-1.902-4.761a.38.38 0 0 0-.353-.24h-.692a.38.38 0 0 0-.354.243l-1.85 4.761a.382.382 0 0 0 .354.52h.418c.16 0 .302-.1.357-.251l.358-.988h2.128l.381.994a.38.38 0 0 0 .356.244h.447a.38.38 0 0 0 .353-.522zm4.92-.07l-1.49-2.248 1.34-2.096a.381.381 0 0 0-.32-.587h-.448a.379.379 0 0 0-.324.183l-.94 1.538-.96-1.541a.38.38 0 0 0-.322-.18h-.458a.38.38 0 0 0-.32.588l1.329 2.055-1.498 2.29a.382.382 0 0 0 .319.59h.49a.38.38 0 0 0 .32-.174l1.078-1.682 1.076 1.681c.07.11.19.175.32.175h.492a.38.38 0 0 0 .316-.591zm1.993-4.55a.38.38 0 0 0-.38-.38h-.408a.38.38 0 0 0-.38.38v4.762c0 .21.17.38.38.38h.408c.21 0 .38-.17.38-.38z" mask="url(&quot;#jw8cb&quot;)"/><path fill="#149bd4" fill-opacity=".15" d="M26.557 26.146l.7 1.889H25.87zm15.995 6.185c0 .922-.746 1.669-1.666 1.669H15.115a1.665 1.665 0 0 1-1.606-2.114l2.67-9.662c.2-.723.857-1.224 1.606-1.224h20.43c.748 0 1.405.5 1.605 1.224l2.651 9.593c.052.162.08.335.08.514zm-18.621-6.6c.21 0 .38-.171.38-.382v-.23a.38.38 0 0 0-.38-.38h-3.634a.38.38 0 0 0-.38.38v.23c0 .21.17.381.38.381h1.235v4.15c0 .211.17.381.38.381h.408c.21 0 .38-.17.38-.38v-4.15zm5.24 4.008l-1.902-4.761a.38.38 0 0 0-.353-.24h-.692a.38.38 0 0 0-.354.243l-1.85 4.761a.382.382 0 0 0 .354.52h.418c.16 0 .302-.1.357-.251l.358-.988h2.128l.381.994a.38.38 0 0 0 .356.244h.447a.38.38 0 0 0 .353-.522zm4.92-.07l-1.49-2.248 1.34-2.096a.381.381 0 0 0-.32-.587h-.448a.379.379 0 0 0-.324.183l-.94 1.538-.96-1.541a.38.38 0 0 0-.322-.18h-.458a.38.38 0 0 0-.32.588l1.329 2.055-1.498 2.29a.382.382 0 0 0 .319.59h.49a.38.38 0 0 0 .32-.174l1.078-1.682 1.076 1.681c.07.11.19.175.32.175h.492a.38.38 0 0 0 .316-.591zm1.993-4.55a.38.38 0 0 0-.38-.38h-.408a.38.38 0 0 0-.38.38v4.762c0 .21.17.38.38.38h.408c.21 0 .38-.17.38-.38z"/></g><g filter="url(#jw8ca)"><path fill="none" d="M26.557 26.146l.7 1.889H25.87zm15.995 6.185c0 .922-.746 1.669-1.666 1.669H15.115a1.665 1.665 0 0 1-1.606-2.114l2.67-9.662c.2-.723.857-1.224 1.606-1.224h20.43c.748 0 1.405.5 1.605 1.224l2.651 9.593c.052.162.08.335.08.514zm-18.621-6.6c.21 0 .38-.171.38-.382v-.23a.38.38 0 0 0-.38-.38h-3.634a.38.38 0 0 0-.38.38v.23c0 .21.17.381.38.381h1.235v4.15c0 .211.17.381.38.381h.408c.21 0 .38-.17.38-.38v-4.15zm5.24 4.008l-1.902-4.761a.38.38 0 0 0-.353-.24h-.692a.38.38 0 0 0-.354.243l-1.85 4.761a.382.382 0 0 0 .354.52h.418c.16 0 .302-.1.357-.251l.358-.988h2.128l.381.994a.38.38 0 0 0 .356.244h.447a.38.38 0 0 0 .353-.522zm4.92-.07l-1.49-2.248 1.34-2.096a.381.381 0 0 0-.32-.587h-.448a.379.379 0 0 0-.324.183l-.94 1.538-.96-1.541a.38.38 0 0 0-.322-.18h-.458a.38.38 0 0 0-.32.588l1.329 2.055-1.498 2.29a.382.382 0 0 0 .319.59h.49a.38.38 0 0 0 .32-.174l1.078-1.682 1.076 1.681c.07.11.19.175.32.175h.492a.38.38 0 0 0 .316-.591zm1.993-4.55a.38.38 0 0 0-.38-.38h-.408a.38.38 0 0 0-.38.38v4.762c0 .21.17.38.38.38h.408c.21 0 .38-.17.38-.38z" mask="url(&quot;#jw8cb&quot;)"/><path fill="#149bd4" fill-opacity=".15" d="M26.557 26.146l.7 1.889H25.87zm15.995 6.185c0 .922-.746 1.669-1.666 1.669H15.115a1.665 1.665 0 0 1-1.606-2.114l2.67-9.662c.2-.723.857-1.224 1.606-1.224h20.43c.748 0 1.405.5 1.605 1.224l2.651 9.593c.052.162.08.335.08.514zm-18.621-6.6c.21 0 .38-.171.38-.382v-.23a.38.38 0 0 0-.38-.38h-3.634a.38.38 0 0 0-.38.38v.23c0 .21.17.381.38.381h1.235v4.15c0 .211.17.381.38.381h.408c.21 0 .38-.17.38-.38v-4.15zm5.24 4.008l-1.902-4.761a.38.38 0 0 0-.353-.24h-.692a.38.38 0 0 0-.354.243l-1.85 4.761a.382.382 0 0 0 .354.52h.418c.16 0 .302-.1.357-.251l.358-.988h2.128l.381.994a.38.38 0 0 0 .356.244h.447a.38.38 0 0 0 .353-.522zm4.92-.07l-1.49-2.248 1.34-2.096a.381.381 0 0 0-.32-.587h-.448a.379.379 0 0 0-.324.183l-.94 1.538-.96-1.541a.38.38 0 0 0-.322-.18h-.458a.38.38 0 0 0-.32.588l1.329 2.055-1.498 2.29a.382.382 0 0 0 .319.59h.49a.38.38 0 0 0 .32-.174l1.078-1.682 1.076 1.681c.07.11.19.175.32.175h.492a.38.38 0 0 0 .316-.591zm1.993-4.55a.38.38 0 0 0-.38-.38h-.408a.38.38 0 0 0-.38.38v4.762c0 .21.17.38.38.38h.408c.21 0 .38-.17.38-.38z"/></g><path fill="#149bd4" d="M26.557 26.146l.7 1.889H25.87zm15.995 6.185c0 .922-.746 1.669-1.666 1.669H15.115a1.665 1.665 0 0 1-1.606-2.114l2.67-9.662c.2-.723.857-1.224 1.606-1.224h20.43c.748 0 1.405.5 1.605 1.224l2.651 9.593c.052.162.08.335.08.514zm-18.621-6.6c.21 0 .38-.171.38-.382v-.23a.38.38 0 0 0-.38-.38h-3.634a.38.38 0 0 0-.38.38v.23c0 .21.17.381.38.381h1.235v4.15c0 .211.17.381.38.381h.408c.21 0 .38-.17.38-.38v-4.15zm5.24 4.008l-1.902-4.761a.38.38 0 0 0-.353-.24h-.692a.38.38 0 0 0-.354.243l-1.85 4.761a.382.382 0 0 0 .354.52h.418c.16 0 .302-.1.357-.251l.358-.988h2.128l.381.994a.38.38 0 0 0 .356.244h.447a.38.38 0 0 0 .353-.522zm4.92-.07l-1.49-2.248 1.34-2.096a.381.381 0 0 0-.32-.587h-.448a.379.379 0 0 0-.324.183l-.94 1.538-.96-1.541a.38.38 0 0 0-.322-.18h-.458a.38.38 0 0 0-.32.588l1.329 2.055-1.498 2.29a.382.382 0 0 0 .319.59h.49a.38.38 0 0 0 .32-.174l1.078-1.682 1.076 1.681c.07.11.19.175.32.175h.492a.38.38 0 0 0 .316-.591zm1.993-4.55a.38.38 0 0 0-.38-.38h-.408a.38.38 0 0 0-.38.38v4.762c0 .21.17.38.38.38h.408c.21 0 .38-.17.38-.38z"/></g></g></svg>