<svg xmlns="http://www.w3.org/2000/svg" width="55" height="55" viewBox="0 0 55 55"><defs><linearGradient id="4br6a" x1="45" x2="10" y1="55" y2="0" gradientUnits="userSpaceOnUse"><stop offset="0" stop-color="#1c556a"/><stop offset="1" stop-color="#55c684"/></linearGradient></defs><g><g><path fill="#010000" d="M10 0h35c5.523 0 10 4.477 10 10v35c0 5.523-4.477 10-10 10H10C4.477 55 0 50.523 0 45V10C0 4.477 4.477 0 10 0z"/><path fill="url(#4br6a)" d="M10 0h35c5.523 0 10 4.477 10 10v35c0 5.523-4.477 10-10 10H10C4.477 55 0 50.523 0 45V10C0 4.477 4.477 0 10 0z"/></g><g><path fill="#fff" d="M35.106 24.605c0 5.205-6.807 12.845-7.097 13.168a.685.685 0 0 1-1.019 0c-.29-.323-7.096-7.963-7.096-13.168 0-4.193 3.412-7.605 7.606-7.605s7.606 3.412 7.606 7.605zm-3.78 0A3.831 3.831 0 0 0 27.5 20.78a3.831 3.831 0 0 0-3.827 3.826 3.831 3.831 0 0 0 3.827 3.827 3.83 3.83 0 0 0 3.827-3.827z"/></g></g></svg>