<svg xmlns="http://www.w3.org/2000/svg" width="103" height="102" viewBox="0 0 103 102"><defs><linearGradient id="t7tha" x1="102.56" x2=".56" y1="70.94" y2="30.84" gradientUnits="userSpaceOnUse"><stop offset="0" stop-color="#872a26"/><stop offset="1" stop-color="#e1554f"/></linearGradient></defs><g><g><path fill="#fff" d="M51.516-.063c28.14 0 50.953 22.813 50.953 50.954 0 28.14-22.813 50.953-50.953 50.953C23.376 101.844.562 79.03.562 50.89.562 22.75 23.375-.062 51.516-.062z"/><path fill="url(#t7tha)" d="M51.516-.063c28.14 0 50.953 22.813 50.953 50.954 0 28.14-22.813 50.953-50.953 50.953C23.376 101.844.562 79.03.562 50.89.562 22.75 23.375-.062 51.516-.062z"/></g><g><g><text fill="#fff" dominant-baseline="text-before-edge" font-family="'MullerBold','MullerBold'" font-size="15" font-style="none" font-weight="400" transform="translate(35 35)"><tspan style="font-kerning:normal" letter-spacing=".75">M</tspan></text></g></g></g></svg>