<svg xmlns="http://www.w3.org/2000/svg" width="55" height="55" viewBox="0 0 55 55"><defs><linearGradient id="zzwta" x1="45" x2="10" y1="55" y2="0" gradientUnits="userSpaceOnUse"><stop offset="0" stop-color="#1ae5da"/><stop offset="1" stop-color="#5c7ee9"/></linearGradient></defs><g><g><path fill="#010000" d="M10 0h35c5.523 0 10 4.477 10 10v35c0 5.523-4.477 10-10 10H10C4.477 55 0 50.523 0 45V10C0 4.477 4.477 0 10 0z"/><path fill="url(#zzwta)" d="M10 0h35c5.523 0 10 4.477 10 10v35c0 5.523-4.477 10-10 10H10C4.477 55 0 50.523 0 45V10C0 4.477 4.477 0 10 0z"/></g><g><path fill="#fff" d="M37.48 18.572v.841c-.18.685-.267 1.47-.548 2.057.16-.96.561-2.716-.09-3.553-1.484-1.897-5.246.349-6.502 1.122 4.037 1.3 6.806 3.893 6.501 9.628h-11.72c-.752 3.567 4.95 4.374 5.585 1.215h6.045c-1.356 4.204-5.016 6.913-10.716 6.078-1.538 1.014-3.08 2.028-5.312 2.336h-.732c-1.554-.222-2.214-1.353-2.472-2.897v-.841c.244-4.83 4.265-10.387 8.698-13.742-3.074 1.161-5.76 4.916-7.692 7.245.528-5.68 4.086-9.711 9.707-9.301.439.031.922.266 1.371.188.62-.109 1.51-.93 2.292-1.31.942-.458 2.066-.82 2.838-.934h.825c1.056.197 1.733.783 1.923 1.868zM19.99 32.267c-.465 1.122-1.546 3.104-.642 4.393 1.281 1.826 5.078-.062 6.227-.842-2.514-.518-4.253-1.828-5.586-3.55zm5.2-6.83l5.676-.004c.374-3.836-5.896-3.576-5.676.003z"/></g></g></svg>