<svg xmlns="http://www.w3.org/2000/svg" width="55" height="55" viewBox="0 0 55 55"><defs><linearGradient id="ikw1a" x1="45" x2="10" y1="55" y2="0" gradientUnits="userSpaceOnUse"><stop offset="0" stop-color="#672874"/><stop offset="1" stop-color="#c13264"/></linearGradient></defs><g><g><path fill="#dedede" d="M10 0h35c5.523 0 10 4.477 10 10v35c0 5.523-4.477 10-10 10H10C4.477 55 0 50.523 0 45V10C0 4.477 4.477 0 10 0z"/><path fill="url(#ikw1a)" d="M10 0h35c5.523 0 10 4.477 10 10v35c0 5.523-4.477 10-10 10H10C4.477 55 0 50.523 0 45V10C0 4.477 4.477 0 10 0z"/></g><g><path fill="#fff" d="M23.798 25.15v-3.12c0-2.277 1.86-4.13 4.147-4.13 2.288 0 4.148 1.853 4.148 4.13v3.12c0 .442-.36.8-.804.8a.802.802 0 0 1-.803-.8v-3.12c0-1.395-1.14-2.53-2.541-2.53-1.4 0-2.54 1.135-2.54 2.53v3.12c0 .442-.36.8-.804.8a.802.802 0 0 1-.803-.8zm13.67-.61l-2.811 11.4c-.17.64-.847 1.16-1.513 1.16H22.7c-.665 0-1.342-.52-1.512-1.16l-2.81-11.4c-.054-.214.083-.388.305-.388h4.312v.998c0 .882.721 1.6 1.607 1.6.887 0 1.608-.718 1.608-1.6v-.998h3.474v.998c0 .882.72 1.6 1.607 1.6.886 0 1.607-.718 1.607-1.6v-.998h4.264c.222 0 .359.174.306.389z"/></g></g></svg>