<svg xmlns="http://www.w3.org/2000/svg" width="69" height="69" viewBox="0 0 69 69"><defs><mask id="y35nb" width="2" height="2" x="-1" y="-1"><path fill="#fff" d="M18 18h33v33H18z"/><path d="M34.5 18C43.613 18 51 25.387 51 34.5S43.613 51 34.5 51 18 43.613 18 34.5 25.387 18 34.5 18z"/></mask><filter id="y35na" width="95" height="95" x="-13" y="-13" filterUnits="userSpaceOnUse"><feOffset in="SourceGraphic" result="FeOffset1150Out"/><feGaussianBlur in="FeOffset1150Out" result="FeGaussianBlur1151Out" stdDeviation="8.4 8.4"/></filter><clipPath id="y35nc"><path fill="#fff" d="M15.333 53.667V15.333h38.334v38.334zM18 34.5C18 43.613 25.387 51 34.5 51S51 43.613 51 34.5 43.613 18 34.5 18 18 25.387 18 34.5z"/></clipPath></defs><g><g><g filter="url(#y35na)"><path fill="none" d="M34.5 18C43.613 18 51 25.387 51 34.5S43.613 51 34.5 51 18 43.613 18 34.5 25.387 18 34.5 18z" mask="url(&quot;#y35nb&quot;)"/><path fill="#38d177" fill-opacity=".35" d="M34.5 18C43.613 18 51 25.387 51 34.5S43.613 51 34.5 51 18 43.613 18 34.5 25.387 18 34.5 18z"/></g><g filter="url(#y35na)"><path fill="none" d="M34.5 18C43.613 18 51 25.387 51 34.5S43.613 51 34.5 51 18 43.613 18 34.5 25.387 18 34.5 18z" mask="url(&quot;#y35nb&quot;)"/><path fill="#38d177" fill-opacity=".35" d="M34.5 18C43.613 18 51 25.387 51 34.5S43.613 51 34.5 51 18 43.613 18 34.5 25.387 18 34.5 18z"/></g><path fill="#38d177" d="M34.5 18C43.613 18 51 25.387 51 34.5S43.613 51 34.5 51 18 43.613 18 34.5 25.387 18 34.5 18z"/><path fill="none" stroke="#26824c" stroke-linecap="round" stroke-linejoin="round" stroke-miterlimit="50" stroke-width="5.33" d="M34.5 18C43.613 18 51 25.387 51 34.5S43.613 51 34.5 51 18 43.613 18 34.5 25.387 18 34.5 18z" clip-path="url(&quot;#y35nc&quot;)"/></g><g><path fill="#fff" d="M35 30a5 5 0 1 1 0 10 5 5 0 0 1 0-10z"/></g></g></svg>