<svg xmlns="http://www.w3.org/2000/svg" width="17" height="19" viewBox="0 0 17 19"><g><g opacity=".65"><path fill="#fff" d="M1.167 12.605l7.1-7.1a2.439 2.439 0 0 1 1.822-.77 2.31 2.31 0 0 1 1.698.696 2.31 2.31 0 0 1 .697 1.699c0 .717-.256 1.324-.77 1.82l-5.01 5.011a.374.374 0 0 1-.27.122c-.13 0-.32-.126-.573-.378-.253-.253-.38-.445-.38-.575 0-.097.042-.187.123-.269l5.01-5.01c.204-.22.306-.46.306-.721a.795.795 0 0 0-.82-.82c-.276 0-.52.099-.732.294l-7.1 7.1c-.514.514-.77 1.104-.77 1.772 0 .522.17.954.513 1.296.342.342.773.513 1.295.513.669 0 1.259-.257 1.772-.77l9.484-9.496c.619-.619.928-1.356.928-2.212 0-.863-.297-1.6-.892-2.212-.594-.61-1.324-.916-2.187-.916-.831 0-1.568.314-2.212.94l-7.406 7.419a.384.384 0 0 1-.281.122c-.13 0-.32-.124-.568-.373-.249-.248-.373-.438-.373-.568 0-.098.04-.188.122-.269l7.394-7.406c.937-.92 2.049-1.38 3.336-1.38 1.296 0 2.391.451 3.288 1.356.896.904 1.344 2.004 1.344 3.3 0 1.27-.46 2.374-1.381 3.311l-9.496 9.484c-.815.814-1.772 1.222-2.872 1.222-.953 0-1.751-.322-2.395-.966-.644-.643-.966-1.442-.966-2.395 0-1.116.408-2.073 1.222-2.871z"/></g></g></svg>