<svg xmlns="http://www.w3.org/2000/svg" width="747" height="282" viewBox="0 0 747 282"><defs><clipPath id="t9qaa"><path fill="#fff" d="M373.5 0C593.033 0 771 177.967 771 397.5S593.033 795 373.5 795-24 617.033-24 397.5 153.967 0 373.5 0z"/></clipPath><clipPath id="t9qab"><path fill="#fff" d="M373.5 0C593.033 0 771 177.967 771 397.5S593.033 795 373.5 795-24 617.033-24 397.5 153.967 0 373.5 0z"/></clipPath></defs><g><g opacity=".8"><path fill="none" stroke="#c03139" stroke-linecap="round" stroke-linejoin="round" stroke-miterlimit="50" stroke-width="200" d="M373.5 0C593.033 0 771 177.967 771 397.5S593.033 795 373.5 795-24 617.033-24 397.5 153.967 0 373.5 0z" clip-path="url(&quot;#t9qaa&quot;)"/></g><g opacity=".8"><path fill="none" stroke="#62c045" stroke-linecap="round" stroke-linejoin="round" stroke-miterlimit="50" stroke-width="200" d="M373.5 0C593.033 0 771 177.967 771 397.5S593.033 795 373.5 795-24 617.033-24 397.5 153.967 0 373.5 0z" clip-path="url(&quot;#t9qab&quot;)"/></g></g></svg>