<svg xmlns="http://www.w3.org/2000/svg" width="23" height="33" viewBox="0 0 23 33"><g><g><path fill="#fff" d="M22.99 11.799v9.439c0 6.49-5.155 11.771-11.49 11.771S.01 27.712.01 21.202v-9.403C.01 5.288 5.165-.01 11.5-.01s11.49 5.297 11.49 11.808zm-2.162 0c0-5.305-4.184-9.621-9.328-9.621-5.144 0-9.328 4.316-9.328 9.62v9.403c0 5.305 4.184 9.621 9.328 9.621 5.144 0 9.328-4.3 9.328-9.584zm-8.247-1.677v3.827c0 .604-.484 1.093-1.081 1.093s-1.08-.49-1.08-1.093v-3.827c0-.604.483-1.093 1.08-1.093.597 0 1.08.49 1.08 1.093z"/></g></g></svg>