<svg width="21" height="21" viewBox="0 0 21 21" fill="none" xmlns="http://www.w3.org/2000/svg">
<path d="M2.88831 5.62436C4.52561 4.42564 6.56444 3.7099 8.3421 3.7099C10.1313 3.7099 11.4536 4.4313 12.2722 5.85393C12.9137 6.96861 13.2256 8.48839 13.2256 10.5001C13.2256 12.5117 12.9138 14.0315 12.2722 15.1463C11.4535 16.5689 10.1312 17.2903 8.3421 17.2903C6.56444 17.2903 4.52561 16.5746 2.88831 15.3758C1.02591 14.0122 0.000240326 12.2806 0.000240326 10.5002C0.000240326 8.71945 1.02591 6.98798 2.88831 5.62436ZM3.76855 14.1733C5.13893 15.1768 6.89146 15.8 8.3421 15.8C9.92198 15.8 11.7355 15.1976 11.7355 10.5C11.7355 5.80237 9.92198 5.19988 8.3421 5.19988C6.89136 5.19988 5.13893 5.82313 3.76855 6.82655C2.32069 7.8866 1.49022 9.22548 1.49022 10.5C1.49032 11.7744 2.32069 13.1133 3.76855 14.1733Z" fill="white"/>
<path d="M14.6369 3.55174L20.255 3.55164C20.6664 3.55164 21 3.88521 21 4.29668C21 4.70814 20.6664 5.04172 20.255 5.04172L14.6369 5.04181C14.2254 5.04181 13.8918 4.70824 13.8918 4.29677C13.8918 3.88531 14.2254 3.55174 14.6369 3.55174Z" fill="white"/>
<path d="M14.6369 7.78094H20.255C20.6664 7.78094 21 8.11452 21 8.52599C21 8.93745 20.6664 9.27103 20.255 9.27103H14.6369C14.2254 9.27103 13.8918 8.93745 13.8918 8.52599C13.8918 8.11452 14.2254 7.78094 14.6369 7.78094Z" fill="white"/>
<path d="M14.6369 12.0102H20.255C20.6664 12.0102 21 12.3437 21 12.7552C21 13.1667 20.6664 13.5002 20.255 13.5002H14.6369C14.2254 13.5002 13.8918 13.1667 13.8918 12.7552C13.8918 12.3437 14.2254 12.0102 14.6369 12.0102Z" fill="white"/>
<path d="M14.6369 16.2394H20.255C20.6664 16.2394 21 16.573 21 16.9844C21 17.3959 20.6664 17.7295 20.255 17.7295H14.6369C14.2254 17.7295 13.8918 17.3959 13.8918 16.9844C13.8918 16.573 14.2254 16.2394 14.6369 16.2394Z" fill="white"/>
</svg>
