<svg width="328" height="321" viewBox="0 0 328 321" fill="none" xmlns="http://www.w3.org/2000/svg">
<g opacity="0.25">
<path d="M167.404 43.1523L167.404 38" stroke="white" stroke-width="2" stroke-linecap="round"/>
<path d="M36.3071 224L51.5136 215.348" stroke="white" stroke-width="2" stroke-linecap="round"/>
<path d="M31.1812 154.018L36.8926 153.928" stroke="white" stroke-width="2" stroke-linecap="round"/>
<path d="M104.855 56.965L101.828 52.5956" stroke="white" stroke-width="2" stroke-linecap="round"/>
<path d="M59.6108 96.4425L54.7144 93.7888" stroke="white" stroke-width="2" stroke-linecap="round"/>
<path d="M300.217 223.485L285.268 215.348" stroke="white" stroke-width="2" stroke-linecap="round"/>
<path d="M305.861 152.212L300.205 152.928" stroke="white" stroke-width="2" stroke-linecap="round"/>
<path d="M231.427 57.9955L234.454 53.6261" stroke="white" stroke-width="2" stroke-linecap="round"/>
<path d="M277.889 97.239L282.785 94.5854" stroke="white" stroke-width="2" stroke-linecap="round"/>
</g>
<path d="M275.899 225.99C285.336 208.162 290.228 188.176 290.063 167.95C290.058 167.277 290.046 166.603 290.03 165.929C289.542 146.281 284.271 126.466 273.749 108.241C240.192 50.1181 165.926 30.171 107.873 63.6883C52.2378 95.8091 31.6822 165.375 59.6015 222.273" stroke="#9A2424" stroke-width="3.28536" stroke-linecap="round"/>
</svg>
