<svg xmlns="http://www.w3.org/2000/svg" width="39" height="39" viewBox="0 0 39 39"><g><g><path fill="#fff" d="M39 19.5C39 30.269 30.269 39 19.5 39 8.73 39 0 30.268 0 19.5 0 8.73 8.73 0 19.5 0 30.268 0 39 8.73 39 19.5zm-10.23-6.258l-2.98-2.98a.56.56 0 0 0-.791 0L10.118 25.144l.018.018a.732.732 0 0 0-.335.466l-.784 3.514a.73.73 0 0 0 .872.873l3.516-.784a.73.73 0 0 0 .465-.335l.018.018.921-.921-3.77-3.77 1.43-1.43 3.77 3.769 9.248-9.247-3.77-3.77 1.43-1.43 3.77 3.77 1.852-1.852a.56.56 0 0 0 0-.79z"/></g></g></svg>