<svg xmlns="http://www.w3.org/2000/svg" width="18" height="18" viewBox="0 0 18 18"><g><g><path fill="#134e9b" d="M17.403 14.116l-2.717-2.73c-.542-.542-1.438-.525-1.998.038l-1.37 1.375a44.67 44.67 0 0 1-.269-.151c-.864-.482-2.048-1.14-3.293-2.393C6.508 9.001 5.85 7.81 5.37 6.941l-.147-.265.918-.922.452-.454c.561-.564.576-1.464.037-2.008L3.912.562C3.372.019 2.476.036 1.915.599l-.766.774.021.021c-.257.33-.471.71-.63 1.119a4.65 4.65 0 0 0-.282 1.134c-.359 2.988 1 5.72 4.69 9.426 5.098 5.123 9.208 4.736 9.385 4.717a4.58 4.58 0 0 0 1.132-.286 4.41 4.41 0 0 0 1.11-.631l.016.015.776-.763c.56-.564.575-1.464.036-2.009z"/></g></g></svg>